<svg xmlns="http://www.w3.org/2000/svg" width="19.056" height="15.801" viewBox="0 0 19.056 15.801"><defs><style>.a{fill:#adadad;}</style></defs><g transform="translate(0 -43.729)"><g transform="translate(0 50.65)"><path class="a" d="M16.265,231.112H14.4a2.784,2.784,0,0,0-.734.1,2.794,2.794,0,0,0-2.489-1.53h-3.3a2.794,2.794,0,0,0-2.489,1.53,2.784,2.784,0,0,0-.734-.1H2.791A2.8,2.8,0,0,0,0,233.9v2.982a1.677,1.677,0,0,0,1.675,1.675H17.381a1.677,1.677,0,0,0,1.675-1.675V233.9A2.8,2.8,0,0,0,16.265,231.112Zm-11.177,1.36v4.972H1.675a.559.559,0,0,1-.558-.558V233.9a1.677,1.677,0,0,1,1.675-1.675H4.657a1.67,1.67,0,0,1,.438.059C5.091,232.348,5.088,232.409,5.088,232.471Zm7.763,4.972H6.2v-4.972A1.677,1.677,0,0,1,7.879,230.8h3.3a1.677,1.677,0,0,1,1.675,1.675Zm5.088-.558a.559.559,0,0,1-.558.558H13.968v-4.972c0-.062,0-.123-.007-.184a1.671,1.671,0,0,1,.438-.059h1.865a1.677,1.677,0,0,1,1.675,1.675Z" transform="translate(0 -229.68)"/></g><g transform="translate(1.244 46.81)"><path class="a" d="M35.894,126.5a2.48,2.48,0,1,0,2.48,2.48A2.483,2.483,0,0,0,35.894,126.5Zm0,3.844a1.364,1.364,0,1,1,1.364-1.364A1.365,1.365,0,0,1,35.894,130.348Z" transform="translate(-33.414 -126.504)"/></g><g transform="translate(6.214 43.729)"><path class="a" d="M170.276,43.729a3.314,3.314,0,1,0,3.314,3.314A3.318,3.318,0,0,0,170.276,43.729Zm0,5.511a2.2,2.2,0,1,1,2.2-2.2A2.2,2.2,0,0,1,170.276,49.24Z" transform="translate(-166.962 -43.729)"/></g><g transform="translate(12.851 46.81)"><path class="a" d="M347.774,126.5a2.48,2.48,0,1,0,2.48,2.48A2.483,2.483,0,0,0,347.774,126.5Zm0,3.844a1.364,1.364,0,1,1,1.364-1.364A1.365,1.365,0,0,1,347.774,130.348Z" transform="translate(-345.294 -126.504)"/></g></g></svg>