<svg xmlns="http://www.w3.org/2000/svg" width="19.688" height="17.516" viewBox="0 0 19.688 17.516"><defs><style>.a{fill:#f7681a;}</style></defs><path class="a" d="M9.844,17.516a1.154,1.154,0,0,1-.761-.286c-.8-.7-1.562-1.349-2.239-1.926l0,0a41.637,41.637,0,0,1-4.888-4.588A7.328,7.328,0,0,1,0,5.917a6.154,6.154,0,0,1,1.562-4.2A5.294,5.294,0,0,1,5.5,0,4.952,4.952,0,0,1,8.593,1.068,6.329,6.329,0,0,1,9.844,2.374a6.33,6.33,0,0,1,1.251-1.306A4.952,4.952,0,0,1,14.188,0a5.294,5.294,0,0,1,3.938,1.714,6.153,6.153,0,0,1,1.562,4.2,7.327,7.327,0,0,1-1.953,4.8A41.627,41.627,0,0,1,12.848,15.3c-.678.577-1.446,1.232-2.243,1.929A1.155,1.155,0,0,1,9.844,17.516ZM5.5,1.153A4.154,4.154,0,0,0,2.41,2.5,5.006,5.006,0,0,0,1.153,5.917,6.166,6.166,0,0,0,2.841,9.978a40.972,40.972,0,0,0,4.748,4.446l0,0c.679.579,1.449,1.235,2.25,1.935.806-.7,1.577-1.359,2.257-1.939a40.98,40.98,0,0,0,4.748-4.446,6.166,6.166,0,0,0,1.687-4.061A5.006,5.006,0,0,0,17.278,2.5a4.153,4.153,0,0,0-3.09-1.343A3.825,3.825,0,0,0,11.8,1.98a5.6,5.6,0,0,0-1.331,1.54.728.728,0,0,1-1.251,0A5.591,5.591,0,0,0,7.888,1.98,3.825,3.825,0,0,0,5.5,1.153Zm0,0"/></svg>