<svg xmlns="http://www.w3.org/2000/svg" width="20.414" height="24" viewBox="0 0 20.414 24"><defs><style>.a{fill:#f7681a;}</style></defs><g transform="translate(-36.073)"><g transform="translate(36.073)"><path class="a" d="M142.182,12.932h.159a4.586,4.586,0,0,0,3.5-1.516c1.913-2.157,1.6-5.855,1.561-6.207A5.071,5.071,0,0,0,144.995.7a5.526,5.526,0,0,0-2.674-.7h-.085a5.534,5.534,0,0,0-2.674.681,5.074,5.074,0,0,0-2.44,4.528c-.035.353-.353,4.051,1.561,6.207A4.568,4.568,0,0,0,142.182,12.932Zm-3.732-7.6c0-.015,0-.03,0-.04.164-3.563,2.694-3.946,3.777-3.946h.06c1.342.03,3.623.577,3.777,3.946a.1.1,0,0,0,0,.04c0,.035.353,3.414-1.228,5.194a3.257,3.257,0,0,1-2.56,1.064h-.05a3.247,3.247,0,0,1-2.555-1.064C138.106,8.757,138.444,5.363,138.449,5.333Z" transform="translate(-132.061)"/><path class="a" d="M56.486,265.425v-.015c0-.04,0-.08,0-.124-.03-.984-.094-3.285-2.251-4.021l-.05-.015a14.342,14.342,0,0,1-4.125-1.879.671.671,0,1,0-.77,1.1,15.479,15.479,0,0,0,4.538,2.072c1.158.413,1.287,1.65,1.322,2.783a1,1,0,0,0,0,.124,9.021,9.021,0,0,1-.1,1.536,18.291,18.291,0,0,1-8.762,2.038,18.4,18.4,0,0,1-8.767-2.043,8.54,8.54,0,0,1-.1-1.536c0-.04,0-.079,0-.124.035-1.133.164-2.371,1.322-2.783a15.624,15.624,0,0,0,4.538-2.072.671.671,0,0,0-.77-1.1,14.183,14.183,0,0,1-4.125,1.879l-.05.015c-2.157.741-2.222,3.042-2.251,4.021a1,1,0,0,1,0,.124v.015a7.621,7.621,0,0,0,.253,2.251.637.637,0,0,0,.258.313,18.8,18.8,0,0,0,9.7,2.376,18.855,18.855,0,0,0,9.7-2.376.665.665,0,0,0,.258-.313A8,8,0,0,0,56.486,265.425Z" transform="translate(-36.073 -246.36)"/></g></g></svg>