<svg xmlns="http://www.w3.org/2000/svg" width="20.414" height="16.993" viewBox="0 0 20.414 16.993"><defs><style>.a{fill:#adadad;}</style></defs><g transform="translate(0.027 -2)"><g transform="translate(-0.004 4.549)"><path class="a" d="M18.268,19.444H2.124A2.1,2.1,0,0,1,0,17.32V7.124A2.1,2.1,0,0,1,2.124,5H18.268a2.1,2.1,0,0,1,2.124,2.124v10.2A2.1,2.1,0,0,1,18.268,19.444ZM2.124,5.85A1.307,1.307,0,0,0,.85,7.124v10.2a1.307,1.307,0,0,0,1.274,1.274H18.268a1.307,1.307,0,0,0,1.274-1.274V7.124A1.307,1.307,0,0,0,18.268,5.85Z" transform="translate(0 -5)"/></g><g transform="translate(6.793 2)"><path class="a" d="M14.372,5.4a.4.4,0,0,1-.425-.425v-1.7a.4.4,0,0,0-.425-.425H9.274a.4.4,0,0,0-.425.425v1.7a.425.425,0,0,1-.85,0v-1.7A1.307,1.307,0,0,1,9.274,2h4.248A1.307,1.307,0,0,1,14.8,3.274v1.7A.4.4,0,0,1,14.372,5.4Z" transform="translate(-8 -2)"/></g><g transform="translate(-0.027 7.916)"><path class="a" d="M10.192,13.243h-.17L.251,9.844A.518.518,0,0,1,0,9.249a.518.518,0,0,1,.595-.255l9.6,3.4,9.6-3.4a.356.356,0,0,1,.51.255.356.356,0,0,1-.255.51l-9.771,3.4c0,.085,0,.085-.085.085Z" transform="translate(0.027 -8.962)"/></g></g></svg>