<svg xmlns="http://www.w3.org/2000/svg" width="20.414" height="20.414" viewBox="0 0 20.414 20.414"><defs><style>.a{fill:#adadad;}</style></defs><g transform="translate(0)"><path class="a" d="M10.848,20.414H9.567a1.881,1.881,0,0,1-1.879-1.879V18.1a8.241,8.241,0,0,1-1.28-.531l-.307.307a1.879,1.879,0,0,1-2.658,0l-.906-.905a1.879,1.879,0,0,1,0-2.658l.307-.307a8.242,8.242,0,0,1-.531-1.28H1.879A1.881,1.881,0,0,1,0,10.848V9.567A1.881,1.881,0,0,1,1.879,7.687h.433a8.244,8.244,0,0,1,.531-1.28L2.537,6.1a1.879,1.879,0,0,1,0-2.658l.906-.906a1.879,1.879,0,0,1,2.658,0l.307.307a8.249,8.249,0,0,1,1.28-.531V1.879A1.881,1.881,0,0,1,9.567,0h1.281a1.881,1.881,0,0,1,1.879,1.879v.433a8.241,8.241,0,0,1,1.28.531l.307-.307a1.879,1.879,0,0,1,2.658,0l.906.905a1.879,1.879,0,0,1,0,2.658l-.307.307a8.242,8.242,0,0,1,.531,1.28h.433a1.881,1.881,0,0,1,1.879,1.879v1.281a1.881,1.881,0,0,1-1.879,1.879H18.1a8.243,8.243,0,0,1-.531,1.28l.307.307a1.879,1.879,0,0,1,0,2.658l-.906.906a1.879,1.879,0,0,1-2.658,0l-.307-.307a8.249,8.249,0,0,1-1.28.531v.433A1.881,1.881,0,0,1,10.848,20.414Zm-4.24-4.1a7.05,7.05,0,0,0,1.827.759.6.6,0,0,1,.449.579v.883a.684.684,0,0,0,.683.683h1.281a.684.684,0,0,0,.683-.683v-.883a.6.6,0,0,1,.449-.579,7.05,7.05,0,0,0,1.827-.759.6.6,0,0,1,.727.092l.626.626a.683.683,0,0,0,.966,0l.906-.906a.683.683,0,0,0,0-.966l-.626-.626a.6.6,0,0,1-.092-.727,7.049,7.049,0,0,0,.759-1.827.6.6,0,0,1,.579-.449h.883a.684.684,0,0,0,.683-.683V9.567a.684.684,0,0,0-.683-.683h-.883a.6.6,0,0,1-.579-.449,7.05,7.05,0,0,0-.759-1.827.6.6,0,0,1,.092-.727l.626-.626a.683.683,0,0,0,0-.966l-.906-.906a.683.683,0,0,0-.966,0l-.626.626a.6.6,0,0,1-.727.092,7.05,7.05,0,0,0-1.827-.759.6.6,0,0,1-.449-.579V1.879a.684.684,0,0,0-.683-.683H9.567a.684.684,0,0,0-.683.683v.883a.6.6,0,0,1-.449.579A7.05,7.05,0,0,0,6.608,4.1a.6.6,0,0,1-.727-.092l-.626-.626a.683.683,0,0,0-.966,0l-.906.906a.683.683,0,0,0,0,.966l.626.626a.6.6,0,0,1,.092.727,7.049,7.049,0,0,0-.759,1.827.6.6,0,0,1-.579.449H1.879a.684.684,0,0,0-.683.683v1.281a.684.684,0,0,0,.683.683h.883a.6.6,0,0,1,.579.449A7.05,7.05,0,0,0,4.1,13.807a.6.6,0,0,1-.092.727l-.626.626a.683.683,0,0,0,0,.966l.906.906a.683.683,0,0,0,.966,0l.626-.626A.6.6,0,0,1,6.607,16.314Z"/><path class="a" d="M149.042,153.483a4.442,4.442,0,1,1,4.442-4.442A4.447,4.447,0,0,1,149.042,153.483Zm0-7.687a3.246,3.246,0,1,0,3.246,3.246A3.249,3.249,0,0,0,149.042,145.8Z" transform="translate(-138.834 -138.834)"/></g></svg>