<svg xmlns="http://www.w3.org/2000/svg" width="20.414" height="20.414" viewBox="0 0 20.414 20.414"><defs><style>.a{fill:#adadad;}</style></defs><path class="a" d="M18.2.175a.6.6,0,0,0-.846,0L12.747,4.785H2.294A1.8,1.8,0,0,0,.5,6.579v8.373a1.8,1.8,0,0,0,1.794,1.794h.638v3.07a.6.6,0,0,0,1.026.418L7.37,16.746h6.965a1.8,1.8,0,0,0,1.794-1.794V8.168l4.609-4.609a.6.6,0,0,0,0-.846ZM12.7,9.9,11.012,8.21l5.075-5.075,1.692,1.692Zm-2.329-.637,1.274,1.274-2.184.91Zm4.559,5.687a.6.6,0,0,1-.6.6H7.119a.6.6,0,0,0-.428.18L4.128,18.35v-2.2a.6.6,0,0,0-.6-.6H2.294a.6.6,0,0,1-.6-.6V6.579a.6.6,0,0,1,.6-.6H11.55L9.744,7.788a.611.611,0,0,0-.132.2L7.956,11.962H4.726a.6.6,0,1,0,0,1.2H8.355a.605.605,0,0,0,.235-.048L12.927,11.3a.607.607,0,0,0,.2-.132l1.807-1.807ZM18.625,3.981,16.933,2.29l.846-.846,1.692,1.692Zm0,0" transform="translate(-0.5)"/></svg>