<svg xmlns="http://www.w3.org/2000/svg" width="22.619" height="20.785" viewBox="0 0 22.619 20.785"><defs><style>.a{fill:#adadad;}</style></defs><path class="a" d="M46.286,30.667a.492.492,0,0,0-.3-.339L37.36,26.983a.492.492,0,0,0-.549.137L34.7,29.56l-8.513,3.3A.481.481,0,0,0,26,33l-.005,0L23.8,35.53a.491.491,0,0,0,.19.778l1.884.749V43.9a.491.491,0,0,0,.313.458L34.814,47.7a.493.493,0,0,0,.178.033.484.484,0,0,0,.176-.037l0,0,8.626-3.343a.491.491,0,0,0,.312-.458V33.5l2.073-2.395A.492.492,0,0,0,46.286,30.667Zm-10.8.025,6.777,2.627-6.777,2.626Zm-.982,0v5.253l-6.777-2.627ZM26.509,33.9l7.653,2.965L32.6,38.672l-6.041-2.4h0L25,35.651Zm.347,9.664V37.446l5.7,2.268a.491.491,0,0,0,.552-.134l1.389-1.6v8.551Zm8.626,2.963V37l7.644-2.963v9.53Zm7.991-13.793-7.654-2.966,1.51-1.745,7.654,2.966Z" transform="translate(-23.681 -26.95)"/></svg>