<svg xmlns="http://www.w3.org/2000/svg" width="63" height="63" viewBox="0 0 63 63"><defs><style>.a{fill:#adadad;}</style></defs><path class="a" d="M148.043,273.619q0-.193,0-.388c-.054-9.441-8.064-17.159-17.883-17.231-10-.073-18.162,7.728-18.162,17.327q0,.2,0,.4a13.027,13.027,0,0,0,10.188,12.141,33.235,33.235,0,0,0,15.659,0,13.037,13.037,0,0,0,10.191-12.251Z" transform="translate(-98.523 -223.805)"/><path class="a" d="M53.773,9.259A31.558,31.558,0,0,0,7.414,52q.836.993,1.753,1.918A.615.615,0,0,0,10.2,53.36,21.79,21.79,0,0,1,23.157,29.343a.616.616,0,0,0,.192-1.009,11.813,11.813,0,1,1,16.3,0,.616.616,0,0,0,.192,1.009A21.789,21.789,0,0,1,52.8,53.36a.615.615,0,0,0,1.036.554q.915-.923,1.753-1.919A31.707,31.707,0,0,0,53.773,9.259Z" transform="translate(0)"/><circle class="a" cx="7.643" cy="7.643" r="7.643" transform="translate(23.857 11.929)"/></svg>