<svg xmlns="http://www.w3.org/2000/svg" width="20.304" height="22.986" viewBox="0 0 20.304 22.986"><defs><style>.a{fill:#adadad;}</style></defs><g transform="translate(-39.988 -16)"><path class="a" d="M128.383,104.766h8.428a.383.383,0,1,0,0-.766h-8.428a.383.383,0,1,0,0,.766Z" transform="translate(-83.798 -83.786)"/><path class="a" d="M128.383,152.766h8.428a.383.383,0,1,0,0-.766h-8.428a.383.383,0,1,0,0,.766Z" transform="translate(-83.798 -129.487)"/><path class="a" d="M128.383,200.766h8.428a.383.383,0,1,0,0-.766h-8.428a.383.383,0,1,0,0,.766Z" transform="translate(-83.798 -175.189)"/><path class="a" d="M128.383,248.766h8.428a.383.383,0,1,0,0-.766h-8.428a.383.383,0,1,0,0,.766Z" transform="translate(-83.798 -220.89)"/><path class="a" d="M128.383,296.766h3.065a.383.383,0,0,0,0-.766h-3.065a.383.383,0,1,0,0,.766Z" transform="translate(-83.798 -266.592)"/><path class="a" d="M59.724,25.051a1.15,1.15,0,0,0-1.573.41l-.924,1.576V17.532a.383.383,0,0,0-.383-.383H53.939a15.021,15.021,0,0,0-1.2-1.133A.382.382,0,0,0,52.631,16H41.521a.383.383,0,0,0-.383.383v1.2a1.532,1.532,0,0,0,0,2.968v.863a1.532,1.532,0,0,0,0,2.968v.863a1.532,1.532,0,0,0,0,2.968v.48a1.532,1.532,0,0,0,0,2.968v2.347a.383.383,0,0,0,.383.383H41.9v1.149a.383.383,0,0,0,.383.383h9.735l-.263.448a.38.38,0,0,0-.047.13v.013h0L51.4,38.546a.383.383,0,0,0,.614.36l1.63-1.265c.1-.081.155-.131.147-.2l.892-1.522h2.158a.383.383,0,0,0,.383-.383V31.584l2.907-4.96A1.151,1.151,0,0,0,59.724,25.051Zm-.678.621a.383.383,0,0,1,.427.564l-.194.33-.661-.387.194-.33a.38.38,0,0,1,.234-.177ZM53.275,36.813l-.661-.387,5.036-8.593.661.387Zm-.262-19.505,1.374,1.374H53.014Zm5.024,9.863.194-.33.661.387-.194.33Zm-1.576-9.256V28.259a.385.385,0,0,0,.007.074l-.773,1.32V19.065a.382.382,0,0,0-.112-.271h0l-.878-.878ZM41.9,16.766H52.248v2.3a.383.383,0,0,0,.383.383h2.3V30.96l-1.56,2.662H41.9V31.659a1.531,1.531,0,0,0,1.1-1.1.383.383,0,1,0-.742-.191.764.764,0,0,1-.359.471V28.211a1.531,1.531,0,0,0,1.1-1.1.383.383,0,1,0-.742-.191.764.764,0,0,1-.359.471V24.38a1.531,1.531,0,0,0,1.1-1.1.383.383,0,1,0-.742-.191.764.764,0,0,1-.359.471v-3.01a1.531,1.531,0,0,0,1.1-1.1.383.383,0,1,0-.742-.191.764.764,0,0,1-.359.471Zm-1.149,2.3a.766.766,0,0,1,.383-.663v1.325A.766.766,0,0,1,40.755,19.065Zm0,3.831a.766.766,0,0,1,.383-.663v1.325A.766.766,0,0,1,40.755,22.9Zm0,3.831a.766.766,0,0,1,.383-.663v1.325A.766.766,0,0,1,40.755,26.727Zm0,3.448a.766.766,0,0,1,.383-.663v1.325A.766.766,0,0,1,40.755,30.175Zm1.915,4.98v-.766H52.92l-.449.766Zm9.714,2.024.346.2-.426.331Zm4.077-2.024H55.135l1.326-2.263Z"/></g></svg>