<svg xmlns="http://www.w3.org/2000/svg" width="37.938" height="31.58" viewBox="0 0 37.938 31.58"><defs><style>.a{fill:#fff;}</style></defs><g transform="translate(0.027 -2)"><g transform="translate(0.015 6.737)"><path class="a" d="M33.949,31.843h-30A3.909,3.909,0,0,1,0,27.9V8.948A3.909,3.909,0,0,1,3.948,5h30A3.909,3.909,0,0,1,37.9,8.948V27.9A3.909,3.909,0,0,1,33.949,31.843Zm-30-25.264A2.428,2.428,0,0,0,1.579,8.948V27.9a2.428,2.428,0,0,0,2.369,2.369h30A2.428,2.428,0,0,0,36.317,27.9V8.948a2.428,2.428,0,0,0-2.369-2.369Z" transform="translate(0 -5)"/></g><g transform="translate(12.647 2)"><path class="a" d="M19.843,8.316a.746.746,0,0,1-.79-.79V4.369a.746.746,0,0,0-.79-.79h-7.9a.746.746,0,0,0-.79.79V7.527a.746.746,0,0,1-.79.79A.746.746,0,0,1,8,7.527V4.369A2.428,2.428,0,0,1,10.369,2h7.9a2.428,2.428,0,0,1,2.369,2.369V7.527A.746.746,0,0,1,19.843,8.316Z" transform="translate(-8 -2)"/></g><g transform="translate(-0.027 12.994)"><path class="a" d="M18.963,16.917h-.316L.489,10.6A.963.963,0,0,1,.015,9.5a.963.963,0,0,1,1.105-.474l17.843,6.316L36.806,9.022a.662.662,0,0,1,.947.474.662.662,0,0,1-.474.947L19.121,16.759c0,.158,0,.158-.158.158Z" transform="translate(0.027 -8.963)"/></g></g></svg>