<svg xmlns="http://www.w3.org/2000/svg" width="32.967" height="32.967" viewBox="0 0 32.967 32.967"><defs><style>.a{fill:#fff;}</style></defs><g transform="translate(0 0)"><path class="a" d="M291.269,508.668q-.206.034-.413.062Q291.063,508.7,291.269,508.668Zm0,0" transform="translate(-272.128 -475.915)"/><path class="a" d="M299.537,507.793l-.2.034Zm0,0" transform="translate(-280.066 -475.096)"/><path class="a" d="M278.094,510.34q-.241.027-.485.048Q277.853,510.367,278.094,510.34Zm0,0" transform="translate(-259.734 -477.479)"/><path class="a" d="M286.678,509.738l-.232.029Zm0,0" transform="translate(-268.001 -476.916)"/><path class="a" d="M306.838,506.41l-.174.036Zm0,0" transform="translate(-286.918 -473.803)"/><path class="a" d="M324.625,502.113l-.14.039Zm0,0" transform="translate(-303.591 -469.782)"/><path class="a" d="M319.212,503.543l-.153.04Zm0,0" transform="translate(-298.515 -471.12)"/><path class="a" d="M312.229,505.254l-.163.036Zm0,0" transform="translate(-291.973 -472.721)"/><path class="a" d="M273.741,511.09l-.261.02Zm0,0" transform="translate(-255.871 -478.181)"/><path class="a" d="M32.967,16.484A16.484,16.484,0,1,0,16.484,32.967c.1,0,.193,0,.29,0V20.132H13.232V16h3.541V12.967c0-3.522,2.15-5.439,5.292-5.439a29.152,29.152,0,0,1,3.175.162v3.681H23.074c-1.709,0-2.04.812-2.04,2V16h4.087l-.533,4.127H21.034v12.2A16.493,16.493,0,0,0,32.967,16.484Zm0,0" transform="translate(0 0)"/><path class="a" d="M265.407,511.43q-.257.017-.517.026Q265.15,511.447,265.407,511.43Zm0,0" transform="translate(-247.835 -478.499)"/><path class="a" d="M260.778,511.836l-.274.007Zm0,0" transform="translate(-243.73 -478.879)"/></g></svg>