<svg xmlns="http://www.w3.org/2000/svg" width="32.967" height="32.967" viewBox="0 0 32.967 32.967"><defs><style>.a{fill:#fff;}</style></defs><path class="a" d="M16.484,0A16.484,16.484,0,1,0,32.967,16.484,16.485,16.485,0,0,0,16.484,0Zm-4.79,24.919H7.679V12.841h4.015ZM9.687,11.192H9.66a2.092,2.092,0,1,1,.053-4.173,2.093,2.093,0,1,1-.027,4.173ZM26.169,24.919H22.155V18.457c0-1.624-.581-2.731-2.034-2.731a2.2,2.2,0,0,0-2.06,1.468,2.749,2.749,0,0,0-.132.98v6.745H13.915s.053-10.945,0-12.078H17.93v1.71a3.985,3.985,0,0,1,3.618-1.994c2.641,0,4.622,1.726,4.622,5.436Zm0,0" transform="translate(0 0)"/></svg>