<svg xmlns="http://www.w3.org/2000/svg" width="32.967" height="32.967" viewBox="0 0 32.967 32.967"><defs><style>.a{fill:#fff;}</style></defs><path class="a" d="M16.484,0A16.484,16.484,0,1,0,32.967,16.484,16.485,16.485,0,0,0,16.484,0ZM24.01,12.852q.011.243.011.489A10.692,10.692,0,0,1,13.256,24.106h0a10.709,10.709,0,0,1-5.8-1.7,7.7,7.7,0,0,0,.9.052,7.592,7.592,0,0,0,4.7-1.62,3.788,3.788,0,0,1-3.535-2.628,3.771,3.771,0,0,0,1.709-.065A3.784,3.784,0,0,1,8.2,14.438c0-.017,0-.032,0-.048a3.757,3.757,0,0,0,1.714.473A3.787,3.787,0,0,1,8.74,9.812a10.742,10.742,0,0,0,7.8,3.953,3.786,3.786,0,0,1,6.447-3.45,7.589,7.589,0,0,0,2.4-.918,3.8,3.8,0,0,1-1.664,2.093,7.546,7.546,0,0,0,2.173-.6A7.689,7.689,0,0,1,24.01,12.852Zm0,0" transform="translate(0 0)"/></svg>