<svg xmlns="http://www.w3.org/2000/svg" width="98.216" height="98.219" viewBox="0 0 98.216 98.219"><defs><style>.a{fill:#d8d8d8;}</style></defs><path class="a" d="M8.633,57.552a8.633,8.633,0,1,1,8.633-8.633A8.642,8.642,0,0,1,8.633,57.552ZM45.466,19.184a9.592,9.592,0,1,1,9.592-9.592A9.6,9.6,0,0,1,45.466,19.184Zm0-11.511a1.918,1.918,0,1,0,1.918,1.918A1.921,1.921,0,0,0,45.466,7.673ZM19.28,31.078a9.3,9.3,0,1,1,6.579-15.883h0A9.3,9.3,0,0,1,19.28,31.078Zm0-10.935a1.63,1.63,0,1,0,1.153.477h0A1.621,1.621,0,0,0,19.28,20.143Zm54.1,11.318a10.646,10.646,0,1,1,7.529-3.118A10.58,10.58,0,0,1,73.379,31.461Zm0-13.62a2.974,2.974,0,1,0,2.1.871A2.953,2.953,0,0,0,73.379,17.841Zm12.373,43.35a12.464,12.464,0,1,1,8.818-3.646A12.43,12.43,0,0,1,85.752,61.191Zm0-17.258a4.794,4.794,0,1,0,3.392,1.4A4.781,4.781,0,0,0,85.752,43.934Zm-12.277,49.1a13.23,13.23,0,1,1,9.359-3.87A13.195,13.195,0,0,1,73.474,93.035Zm0-18.791a5.561,5.561,0,1,0,3.934,1.627A5.549,5.549,0,0,0,73.474,74.244Zm-55.73,9.969a8.341,8.341,0,1,1,5.9-2.441A8.322,8.322,0,0,1,17.745,84.213ZM40.286,98.219a5.752,5.752,0,0,1-4.07-9.822h0a5.755,5.755,0,1,1,4.069,9.822Zm0,0"/></svg>