<svg xmlns="http://www.w3.org/2000/svg" width="15.733" height="29.634" viewBox="0 0 15.733 29.634"><defs><style>.a{fill:#61ad24;}</style></defs><g transform="translate(-120.043)"><path class="a" d="M135.734,137.09a.87.87,0,0,0-.7-.591l-4.353-.656-1.569-3.469a2.576,2.576,0,0,0,.9-3.819l3.382-1.127a.868.868,0,0,0,.594-.824V124H121.83V126.6a.868.868,0,0,0,.594.824l3.382,1.127a2.576,2.576,0,0,0,.9,3.819l-1.569,3.469-4.353.656a.869.869,0,0,0-.48,1.477l3.151,3.1-.725,4.363a.869.869,0,0,0,1.257.913l3.925-2.038,3.925,2.038a.869.869,0,0,0,1.257-.913l-.725-4.363,3.151-3.1A.868.868,0,0,0,135.734,137.09Zm-7.824-6.143a.868.868,0,1,1,.868-.868A.869.869,0,0,1,127.91,130.947Z" transform="translate(0 -116.82)"/><path class="a" d="M121.777,5.442h13.9a.868.868,0,0,0,.868-.868V.868A.868.868,0,0,0,135.673,0h-13.9a.868.868,0,0,0-.868.868V4.574A.868.868,0,0,0,121.777,5.442Z" transform="translate(-0.816)"/></g></svg>