<svg xmlns="http://www.w3.org/2000/svg" width="50" height="41.992" viewBox="0 0 50 41.992"><defs><style>.a{fill:#fff;}</style></defs><g transform="translate(0 -41)"><path class="a" d="M44.629,46.859H34.845L33.893,44a4.389,4.389,0,0,0-4.169-3H20.276a4.389,4.389,0,0,0-4.169,3l-.952,2.854H12.793V44.418A3.422,3.422,0,0,0,9.375,41H7.422A3.422,3.422,0,0,0,4,44.418v2.618A5.38,5.38,0,0,0,0,52.23V77.621a5.377,5.377,0,0,0,5.371,5.371H44.629A5.377,5.377,0,0,0,50,77.621V52.23A5.377,5.377,0,0,0,44.629,46.859Zm-37.7-2.441a.489.489,0,0,1,.488-.488H9.375a.489.489,0,0,1,.488.488v2.441H6.934Zm40.137,33.2a2.444,2.444,0,0,1-2.441,2.441H5.371A2.444,2.444,0,0,1,2.93,77.621V52.23a2.444,2.444,0,0,1,2.441-2.441h10.84a1.465,1.465,0,0,0,1.39-1l1.285-3.856a1.463,1.463,0,0,1,1.39-1h9.449a1.463,1.463,0,0,1,1.39,1L32.4,48.787a1.465,1.465,0,0,0,1.39,1h10.84A2.444,2.444,0,0,1,47.07,52.23Z"/><circle class="a" cx="1.5" cy="1.5" r="1.5" transform="translate(41 52.342)"/><path class="a" d="M65.395,161h-2.93a1.465,1.465,0,0,0,0,2.93h2.93a1.465,1.465,0,0,0,0-2.93Z" transform="translate(-55.043 -108.281)"/><g transform="translate(11.816 50.766)"><path class="a" d="M134.184,167.367a13.184,13.184,0,1,1,13.184-13.184A13.2,13.2,0,0,1,134.184,167.367Zm0-23.437a10.254,10.254,0,1,0,10.254,10.254A10.266,10.266,0,0,0,134.184,143.93Z" transform="translate(-121 -141)"/></g><g transform="translate(17.676 56.625)"><path class="a" d="M188.324,215.648a7.324,7.324,0,1,1,7.324-7.324A7.333,7.333,0,0,1,188.324,215.648Zm0-11.719a4.395,4.395,0,1,0,4.395,4.395A4.4,4.4,0,0,0,188.324,203.93Z" transform="translate(-181 -201)"/></g></g></svg>