<svg xmlns="http://www.w3.org/2000/svg" width="33.91" height="39.741" viewBox="0 0 33.91 39.741"><defs><style>.a{fill:#fee100;}</style></defs><path class="a" d="M518.81,131.395c-.037,2.07-.154,4.141-.069,6.209.093,2.25.025,4.5.061,6.749a21.206,21.206,0,0,1-.22,3.094,2.133,2.133,0,0,1-2.067,2.1,25.491,25.491,0,0,1-3.863.124c-2.038-.006-4.075-.02-6.112.01-2.326.034-4.652.081-6.979,0a37.516,37.516,0,0,0-4.907.046,4.283,4.283,0,0,0-2.474,1.165q-2.682,2.395-5.367,4.787a4.766,4.766,0,0,1-.839.6c-.451.25-.765.1-.921-.384a4.113,4.113,0,0,1-.15-1.349c.059-2.793-.014-5.586.016-8.379.06-5.468.02-10.937.021-16.4,0-2.538.064-2.647,2.173-4.016,2.134-1.385,4.26-2.782,6.393-4.169q3.223-2.094,6.455-4.174a4.515,4.515,0,0,1,1.863-.724,3.161,3.161,0,0,1,2.193.648q4.137,2.736,8.254,5.5,2.739,1.83,5.474,3.665a1.925,1.925,0,0,1,.886,1.369A22.424,22.424,0,0,1,518.81,131.395Z" transform="translate(-484.901 -116.658)"/></svg>