<svg xmlns="http://www.w3.org/2000/svg" width="51.085" height="42.903" viewBox="0 0 51.085 42.903"><defs><style>.a{fill:#fff;}</style></defs><g transform="translate(0 0)"><path class="a" d="M45.6,46.986h-10l-.972-2.916A4.484,4.484,0,0,0,30.369,41H20.715a4.484,4.484,0,0,0-4.259,3.07l-.972,2.916H13.07V44.492A3.5,3.5,0,0,0,9.578,41h-2a3.5,3.5,0,0,0-3.492,3.492v2.675A5.5,5.5,0,0,0,0,52.474V78.415A5.494,5.494,0,0,0,5.488,83.9H45.6a5.494,5.494,0,0,0,5.488-5.488V52.474A5.494,5.494,0,0,0,45.6,46.986ZM7.084,44.492a.5.5,0,0,1,.5-.5h2a.5.5,0,0,1,.5.5v2.494H7.084ZM48.091,78.415A2.5,2.5,0,0,1,45.6,80.91H5.488a2.5,2.5,0,0,1-2.494-2.494V52.474A2.5,2.5,0,0,1,5.488,49.98H16.563a1.5,1.5,0,0,0,1.42-1.023l1.313-3.94a1.5,1.5,0,0,1,1.42-1.023h9.654a1.5,1.5,0,0,1,1.42,1.023l1.313,3.94a1.5,1.5,0,0,0,1.42,1.023H45.6a2.5,2.5,0,0,1,2.494,2.494Z" transform="translate(0 -41)"/><circle class="a" cx="1.533" cy="1.533" r="1.533" transform="translate(41.889 11.587)"/><path class="a" d="M65.49,161H62.5a1.5,1.5,0,1,0,0,2.993H65.49a1.5,1.5,0,0,0,0-2.993Z" transform="translate(-54.914 -149.027)"/><g transform="translate(12.073 9.977)"><path class="a" d="M134.47,167.939a13.47,13.47,0,1,1,13.47-13.47A13.485,13.485,0,0,1,134.47,167.939Zm0-23.946a10.476,10.476,0,1,0,10.476,10.476A10.488,10.488,0,0,0,134.47,143.993Z" transform="translate(-121 -141)"/></g><g transform="translate(18.059 15.963)"><path class="a" d="M188.483,215.966a7.483,7.483,0,1,1,7.483-7.483A7.492,7.492,0,0,1,188.483,215.966Zm0-11.973a4.49,4.49,0,1,0,4.49,4.49A4.495,4.495,0,0,0,188.483,203.993Z" transform="translate(-181 -201)"/></g></g></svg>