<svg xmlns="http://www.w3.org/2000/svg" width="52" height="52.025" viewBox="0 0 52 52.025"><defs><style>.a{fill:#fff;}.b{fill:#f71a1a;}</style></defs><g transform="translate(-9626.694 22839.025)"><circle class="a" cx="26" cy="26" r="26" transform="translate(9626.694 -22839)"/><g transform="translate(9626.976 -22839.025)"><path class="b" d="M44.154,7.565a25.872,25.872,0,1,0,0,36.588A25.9,25.9,0,0,0,44.154,7.565Zm-8.092,28.5a1.99,1.99,0,0,1-2.814,0L25.86,28.674l-7.74,7.74A1.99,1.99,0,0,1,15.306,33.6l7.74-7.74-7.388-7.388a1.99,1.99,0,1,1,2.814-2.814l7.388,7.388L32.9,16.009a1.99,1.99,0,1,1,2.814,2.814L28.674,25.86l7.388,7.388A1.99,1.99,0,0,1,36.062,36.062Z" transform="translate(0 0)"/></g></g></svg>