<svg xmlns="http://www.w3.org/2000/svg" width="102.136" height="93.625" viewBox="0 0 102.136 93.625"><defs><style>.a{fill:#d8d8d8;}</style></defs><g transform="translate(0 -1)"><path class="a" d="M35.225,62.037H24.586a5.327,5.327,0,0,1-5.32-5.32V38.631H9.691a3.194,3.194,0,0,1-2.315-5.392L27.59,11.961a3.293,3.293,0,0,1,4.63,0L52.435,33.239a3.191,3.191,0,0,1-2.315,5.392H40.544V56.718a5.327,5.327,0,0,1-5.32,5.32Z" transform="translate(21.163 32.588)"/><path class="a" d="M79.466,17.712a32.423,32.423,0,0,0-59.877,8.094A21.622,21.622,0,0,0,19.2,68.819a11.674,11.674,0,0,1,3.162-8.843L42.582,38.693c4.354-4.579,12.622-4.579,16.967,0L79.768,59.971a11.675,11.675,0,0,1,3.192,8.175,25.733,25.733,0,0,0-3.494-50.434Z"/></g></svg>