<svg xmlns="http://www.w3.org/2000/svg" width="26.245" height="22.5" viewBox="0 0 26.245 22.5"><defs><style>.a{fill:#5d5d5d;}</style></defs><g transform="translate(0 -36.507)"><path class="a" d="M24.488,41.172a11.872,11.872,0,0,0-4.775-3.412,17.025,17.025,0,0,0-6.591-1.252,17.415,17.415,0,0,0-5.1.74,14.254,14.254,0,0,0-4.189,2,9.991,9.991,0,0,0-2.8,3A6.976,6.976,0,0,0,0,45.88,7.107,7.107,0,0,0,1.325,50,10.754,10.754,0,0,0,4.95,53.218a9.308,9.308,0,0,1-.381,1.113q-.22.527-.4.864a5.951,5.951,0,0,1-.476.747q-.3.41-.454.578l-.505.557q-.351.388-.454.506a1.023,1.023,0,0,0-.117.132l-.1.124-.088.132q-.073.11-.066.139a.39.39,0,0,1-.029.146.194.194,0,0,0,.007.176v.015a.736.736,0,0,0,.256.425A.574.574,0,0,0,2.592,59a11,11,0,0,0,1.67-.322A16.008,16.008,0,0,0,11,55.136a20.037,20.037,0,0,0,2.124.117A17.02,17.02,0,0,0,19.713,54a11.87,11.87,0,0,0,4.774-3.412,7.186,7.186,0,0,0,0-9.417Z" transform="translate(0)"/></g></svg>