<svg xmlns="http://www.w3.org/2000/svg" width="32.37" height="32.37" viewBox="0 0 32.37 32.37"><defs><style>.a{fill:#adadad;}</style></defs><g transform="translate(-0.001)"><g transform="translate(0.001)"><path class="a" d="M16.186,0A16.185,16.185,0,1,0,32.371,16.185,16.185,16.185,0,0,0,16.186,0Zm0,5.685,9.578,5.972H6.608Zm9.7,15.509h0a1.734,1.734,0,0,1-1.734,1.734H8.224A1.734,1.734,0,0,1,6.49,21.194V12.037a1.725,1.725,0,0,1,.027-.3l9.151,5.706c.011.007.023.012.035.018l.037.019a.961.961,0,0,0,.2.078l.021,0a.987.987,0,0,0,.226.029h0a.969.969,0,0,0,.226-.029l.021,0a.97.97,0,0,0,.2-.078l.037-.019c.011-.006.024-.011.035-.018l9.151-5.706a1.723,1.723,0,0,1,.027.3v9.157Z" transform="translate(-0.001)"/></g></g></svg>