<svg xmlns="http://www.w3.org/2000/svg" xmlns:xlink="http://www.w3.org/1999/xlink" width="1680" height="195" viewBox="0 0 1680 195"><defs><style>.a{fill:#f8f8f8;}.b{clip-path:url(#a);}.c{opacity:0.69;}.d{fill:#e3a805;}.d,.e,.f,.g,.h,.i,.j,.k,.o,.r{fill-rule:evenodd;}.d,.e,.f,.g,.h,.i,.j,.k,.l,.m,.n,.o,.p,.q,.r,.s,.t,.u,.v,.w,.x{opacity:0.8;}.e{fill:#f28730;}.f{fill:#d1d103;}.g{fill:#ffeb87;}.h{fill:#ffde0d;}.i{fill:#61ad24;}.j{fill:#fa6900;}.k{fill:#d6e308;}.l,.m,.n,.p,.q,.s,.t,.u,.v,.w,.x{fill:none;stroke-linecap:round;stroke-linejoin:round;}.l,.w{stroke:#33732b;}.l{stroke-width:0.382px;}.m,.v{stroke:#d6e308;}.m{stroke-width:0.361px;}.n,.q{stroke:#ffeb87;}.n{stroke-width:0.521px;}.o{fill:#33732b;}.p{stroke:#fa6900;stroke-width:0.288px;}.q{stroke-width:0.254px;}.r{fill:#d95900;}.s{stroke:#61ad24;stroke-width:0.333px;}.t,.x{stroke:#f28730;}.t{stroke-width:0.299px;}.u{stroke:#ffde0d;stroke-width:0.486px;}.v{stroke-width:0.359px;}.w{stroke-width:0.332px;}.x{stroke-width:0.288px;}.y{opacity:0.687;}</style><clipPath id="a"><rect class="a" width="1680" height="195" transform="translate(0 5478)"/></clipPath></defs><g class="b" transform="translate(0 -5478)"><g transform="translate(-29.031 5492)"><g class="c" transform="translate(0 0)"><path class="d" d="M623.859,339.893V276.155c0-31.77.036-31.77,27.285-31.935l82.323.165c9.387.018,12.356-.821,19.32-7.059,6.547-5.863,10.389-9.022,17.644-15.595,12.058-10.924,15.621-16.083,15.621,2.4V244.4h0c-.261,31.051-.146,62.105-.146,93.156,0,14.487.631,14.055-11.467,21.979q-27.624,18.095-55.248,36.192c-15.215,9.966-16.859,9.1-31.98-.943-18.663-12.478-36.065-24.229-54.729-36.707-8.086-4.9-8.625-6.794-8.625-18.184" transform="translate(79.398 -135.383)"/><path class="e" d="M741.215,366.867V300.635c0-33.013-.037-33.013-28.352-33.184l-85.544.171c-9.754.018-12.839-.854-20.076-7.334-6.8-6.092-10.795-9.376-18.335-16.206-12.53-11.349-16.232-16.712-16.232,2.494V267.64h0c.271,32.266.153,64.533.153,96.8,0,15.055-.655,14.606,11.914,22.84l57.408,37.607c15.811,10.357,17.519,9.456,33.231-.979,19.394-12.967,37.475-25.178,56.869-38.143,8.4-5.1,8.964-7.06,8.964-18.9" transform="translate(62.729 -193.751)"/><path class="f" d="M679.693,272.455V229.869c0-21.227-.024-21.227-18.231-21.338l-55,.111c-6.271.013-8.255-.548-12.909-4.716-4.373-3.917-6.94-6.028-11.788-10.419-8.056-7.3-10.438-10.746-10.438,1.6v13.545h0c.174,20.745.1,41.493.1,62.239,0,9.679-.42,9.392,7.662,14.686L616,309.759c10.165,6.66,11.264,6.08,21.366-.63,12.47-8.337,24.1-16.189,36.567-24.526,5.4-3.276,5.763-4.539,5.763-12.149" transform="translate(62.455 -14.204)"/><path class="g" d="M396.833,386.78v-57.2c0-28.513-.033-28.513-24.489-28.662l-73.885.149c-8.425.016-11.089-.738-17.34-6.336-5.875-5.262-9.323-8.1-15.835-14-10.822-9.8-14.021-14.434-14.021,2.152v18.194h0c.234,27.869.13,55.739.13,83.606,0,13-.565,12.615,10.292,19.727l49.585,32.483c13.656,8.944,15.131,8.167,28.7-.847,16.751-11.2,32.369-21.745,49.119-32.944,7.258-4.4,7.743-6.1,7.743-16.321" transform="translate(-39.177 -254.869)"/><path class="h" d="M600.755,351.4V322.762c0-14.274.017-14.274,12.26-14.347l36.985.074c4.216.008,5.551-.369,8.679-3.172,2.941-2.633,4.668-4.053,7.927-7.006,5.418-4.907,7.018-7.225,7.018,1.077V308.5h0c-.117,13.951-.066,27.9-.066,41.853,0,6.508.283,6.315-5.15,9.875q-12.412,8.129-24.822,16.26c-6.835,4.477-7.574,4.087-14.367-.424-8.385-5.606-16.2-10.886-24.588-16.492-3.633-2.2-3.877-3.052-3.877-8.169" transform="translate(72.068 -220.277)"/><path class="h" d="M392.086,379.235V299.991c0-39.5.045-39.5,33.923-39.7l102.349.205c11.671.022,15.362-1.021,24.02-8.775,8.139-7.29,12.915-11.218,21.936-19.39,14.992-13.579,19.423-19.994,19.423,2.982v25.2h0c-.325,38.6-.182,77.211-.182,115.817,0,18.011.782,17.474-14.256,27.326l-68.687,45c-18.916,12.391-20.96,11.315-39.758-1.171-23.2-15.514-44.839-30.124-68.042-45.638-10.053-6.095-10.725-8.446-10.725-22.606" transform="translate(5.87 -200.822)"/><path class="i" d="M469.734,391.56V334.969c0-28.209-.032-28.209-24.225-28.355l-73.092.146c-8.335.017-10.971-.728-17.154-6.267-5.813-5.2-9.223-8.01-15.666-13.847-10.707-9.7-13.871-14.279-13.871,2.131v18h0c.232,27.57.13,55.141.13,82.711,0,12.862-.56,12.48,10.181,19.515l49.053,32.134c13.51,8.849,14.969,8.08,28.394-.838,16.57-11.079,32.021-21.512,48.592-32.591,7.18-4.353,7.658-6.033,7.658-16.145" transform="translate(-15.55 -266.963)"/><path class="j" d="M424.179,348.517V270.256c0-39.009-.043-39.009-33.5-39.212l-101.081.2c-11.526.022-15.172-1.009-23.723-8.667-8.036-7.2-12.755-11.078-21.663-19.149-14.806-13.412-19.182-19.748-19.182,2.945v24.891h0c.32,38.126.179,76.254.179,114.381,0,17.788-.773,17.257,14.08,26.988l67.835,44.438c18.682,12.237,20.7,11.174,39.267-1.158,22.916-15.322,44.283-29.75,67.2-45.072,9.929-6.02,10.591-8.341,10.591-22.327" transform="translate(-47.636 -131.272)"/><path class="k" d="M328.954,391.919V305.382c0-43.133-.049-43.133-37.045-43.358l-111.77.225c-12.744.024-16.775-1.116-26.232-9.584-8.886-7.96-14.1-12.25-23.954-21.175-16.371-14.829-21.209-21.835-21.209,3.258V262.27h0c.353,42.158.2,84.318.2,126.477,0,19.668-.855,19.083,15.568,29.841l75.009,49.137c20.658,13.532,22.89,12.356,43.419-1.279,25.338-16.942,48.966-32.9,74.3-49.838,10.979-6.657,11.712-9.225,11.712-24.689" transform="translate(-84.58 -218.116)"/><path class="h" d="M279.669,326.361V282.654c0-21.787.025-21.787,18.711-21.9l56.453.113c6.436.013,8.473-.562,13.249-4.84,4.488-4.022,7.124-6.187,12.1-10.695,8.268-7.491,10.712-11.029,10.712,1.645v13.9h0c-.179,21.293-.1,42.588-.1,63.881,0,9.933.432,9.638-7.863,15.072l-37.886,24.818c-10.433,6.835-11.56,6.241-21.929-.647-12.8-8.557-24.731-16.614-37.529-25.171-5.546-3.363-5.916-4.659-5.916-12.47" transform="translate(-29.793 -137.257)"/><path class="l" d="M336.614,309.319V259.293c0-24.935-.029-24.935-21.417-25.064l-64.613.129c-7.367.014-9.7-.644-15.164-5.54-5.137-4.6-8.152-7.081-13.847-12.241-9.464-8.573-12.262-12.622-12.262,1.884v15.911h0c.206,24.37.116,48.743.116,73.115,0,11.37-.5,11.032,9,17.25l43.362,28.406c11.942,7.823,13.232,7.143,25.1-.74,14.648-9.794,28.306-19.016,42.954-28.811C336.19,319.744,336.614,318.259,336.614,309.319Z" transform="translate(-52.439 -87.285)"/><path class="i" d="M201.449,300.559V257.1c0-21.661-.024-21.661-18.6-21.774l-56.129.113c-6.4.012-8.424-.561-13.172-4.813-4.463-4-7.083-6.151-12.03-10.634-8.221-7.446-10.65-10.965-10.65,1.636v13.822h0c.178,21.171.1,42.343.1,63.513,0,9.878-.429,9.583,7.819,14.986l37.668,24.676c10.373,6.8,11.494,6.2,21.8-.643,12.725-8.508,24.589-16.519,37.313-25.027,5.514-3.343,5.881-4.633,5.881-12.4" transform="translate(-89.972 -77.882)"/><path class="d" d="M345.607,324.074V290.661c0-16.655.018-16.655,14.3-16.742l43.157.087c4.92.009,6.477-.431,10.128-3.7,3.431-3.073,5.445-4.73,9.248-8.176,6.321-5.726,8.189-8.43,8.189,1.258v10.627h0c-.136,16.277-.076,32.556-.076,48.834,0,7.594.331,7.367-6.01,11.522l-28.962,18.972c-7.977,5.225-8.839,4.771-16.764-.494-9.784-6.541-18.906-12.7-28.691-19.242-4.239-2.571-4.521-3.562-4.521-9.533" transform="translate(-8.875 -149.035)"/><path class="m" d="M481.273,280.878v-47.2c0-23.527-.028-23.527-20.206-23.65l-60.966.123c-6.951.013-9.15-.609-14.308-5.228-4.847-4.342-7.693-6.681-13.066-11.55-8.93-8.088-11.569-11.909-11.569,1.777v15.013h0c.194,23,.109,45.991.109,68.986,0,10.728-.468,10.409,8.491,16.277l40.913,26.8c11.268,7.382,12.486,6.739,23.684-.7,13.82-9.24,26.708-17.943,40.529-27.184C480.873,290.714,481.273,289.312,481.273,280.878Z" transform="translate(-4.249 -26.064)"/><path class="n" d="M298.425,368.107v-68.2c0-34,.038-34,29.2-34.172l88.088.176c10.044.02,13.221-.879,20.674-7.553,7-6.273,11.115-9.654,18.879-16.687,12.9-11.688,16.716-17.21,16.716,2.566v21.691h0c-.279,33.226-.157,66.453-.157,99.679,0,15.5.674,15.039-12.27,23.518l-59.115,38.727c-16.281,10.664-18.041,9.737-34.221-1.009-19.969-13.352-38.59-25.926-58.559-39.277C299,382.318,298.425,380.3,298.425,368.107Z" transform="translate(-23.843 -193.357)"/><path class="o" d="M555.02,294.219V258.493c0-17.808-.021-17.808-15.294-17.9l-46.143.092c-5.262.011-6.926-.46-10.83-3.956-3.668-3.287-5.822-5.057-9.888-8.742-6.759-6.121-8.757-9.014-8.757,1.345v11.362h0c.146,17.4.083,34.811.083,52.215,0,8.119-.354,7.878,6.427,12.32q15.483,10.142,30.967,20.285c8.528,5.586,9.45,5.1,17.925-.528,10.461-6.995,20.216-13.581,30.676-20.575,4.533-2.748,4.836-3.808,4.836-10.193" transform="translate(28.485 -76.018)"/><path class="p" d="M401.439,332.614V294.856c0-18.821.021-18.821,16.164-18.919l48.77.1c5.56.011,7.319-.487,11.445-4.182,3.878-3.474,6.153-5.344,10.452-9.239,7.143-6.47,9.254-9.528,9.254,1.421v12.009h0c-.154,18.4-.086,36.79-.086,55.186,0,8.582.373,8.326-6.793,13.021q-16.366,10.719-32.729,21.439c-9.014,5.905-9.987,5.391-18.944-.557-11.057-7.392-21.366-14.354-32.421-21.746C401.759,340.482,401.439,339.363,401.439,332.614Z" transform="translate(8.837 -161.615)"/><path class="q" d="M167.651,405.331V372.1c0-16.566.018-16.566,14.228-16.652l42.925.087c4.895.009,6.443-.428,10.074-3.682,3.414-3.056,5.416-4.7,9.2-8.131,6.288-5.7,8.146-8.386,8.146,1.251v10.57h0c-.136,16.19-.076,32.383-.076,48.573,0,7.554.329,7.329-5.979,11.461l-28.807,18.871c-7.934,5.2-8.791,4.746-16.675-.491-9.732-6.507-18.8-12.634-28.537-19.139C167.933,412.255,167.651,411.27,167.651,405.331Z" transform="translate(-65.329 -337.624)"/><path class="r" d="M496.672,385.142V342.6c0-21.2.025-21.2,18.212-21.316l54.949.111c6.265.012,8.247-.548,12.9-4.712,4.369-3.914,6.934-6.022,11.776-10.41,8.048-7.29,10.427-10.734,10.427,1.6v13.531h0c-.174,20.725-.1,41.452-.1,62.178,0,9.67.42,9.381-7.653,14.671l-36.876,24.157c-10.156,6.652-11.253,6.074-21.346-.63-12.457-8.329-24.073-16.172-36.53-24.5-5.4-3.273-5.758-4.535-5.758-12.138" transform="translate(39.049 -275.4)"/><path class="g" d="M660.847,335.129V280.173c0-27.392-.03-27.392-23.525-27.534l-70.978.142c-8.093.016-10.654-.709-16.658-6.086-5.644-5.056-8.957-7.78-15.213-13.446-10.4-9.418-13.469-13.867-13.469,2.068V252.8h0c.225,26.772.126,53.544.126,80.317,0,12.49-.544,12.119,9.886,18.95l47.634,31.205c13.118,8.592,14.536,7.845,27.572-.813,16.091-10.759,31.095-20.891,47.186-31.649,6.972-4.228,7.437-5.858,7.437-15.678" transform="translate(46.41 -138.912)"/><path class="s" d="M589.9,392.878V349.236c0-21.754-.025-21.754-18.684-21.867l-56.367.113c-6.428.013-8.461-.562-13.23-4.833-4.481-4.015-7.112-6.178-12.08-10.679-8.256-7.479-10.7-11.012-10.7,1.643v13.881h0c.178,21.26.1,42.523.1,63.785,0,9.919-.432,9.624,7.851,15.049l37.83,24.781c10.418,6.825,11.543,6.232,21.9-.645,12.779-8.544,24.694-16.589,37.474-25.134C589.533,401.971,589.9,400.676,589.9,392.878Z" transform="translate(33.11 -291.499)"/><path class="t" d="M244.813,259.021V219.877c0-19.511-.022-19.511-16.757-19.612l-50.558.1c-5.764.011-7.589-.5-11.866-4.335-4.02-3.6-6.379-5.542-10.836-9.579-7.406-6.707-9.593-9.877-9.593,1.474v12.449h0c.159,19.07.09,38.141.09,57.21,0,8.9-.387,8.632,7.042,13.5l33.929,22.227c9.344,6.121,10.355,5.589,19.64-.58,11.461-7.664,22.149-14.88,33.611-22.543C244.482,267.177,244.813,266.015,244.813,259.021Z" transform="translate(-72.705 11.216)"/><path class="u" d="M545.048,376.01V312.352c0-31.731.036-31.731,27.251-31.9l82.222.165c9.375.018,12.34-.821,19.3-7.05,6.538-5.855,10.375-9.011,17.621-15.576,12.044-10.908,15.6-16.062,15.6,2.4v20.247h0c-.261,31.012-.146,62.026-.146,93.039,0,14.468.63,14.038-11.452,21.952l-55.178,36.146c-15.2,9.954-16.84,9.089-31.94-.94-18.64-12.464-36.02-24.2-54.66-36.663C545.587,389.274,545.048,387.387,545.048,376.01Z" transform="translate(54.396 -219.207)"/><path class="v" d="M780.975,344.608V297.58c0-23.442-.026-23.442-20.131-23.563l-60.74.121c-6.926.013-9.117-.606-14.255-5.208-4.83-4.326-7.665-6.656-13.018-11.506-8.9-8.06-11.526-11.867-11.526,1.769v14.957h0c.192,22.911.108,45.823.108,68.732,0,10.689-.465,10.372,8.461,16.218l40.762,26.7c11.227,7.354,12.44,6.715,23.6-.7,13.77-9.206,26.611-17.876,40.38-27.084C780.577,354.406,780.975,353.011,780.975,344.608Z" transform="translate(90.97 -174.03)"/><path class="w" d="M634.664,271.269V227.812c0-21.661.024-21.661,18.6-21.774l56.129.113c6.4.012,8.424-.56,13.172-4.813,4.463-4,7.083-6.152,12.03-10.633,8.221-7.448,10.651-10.966,10.651,1.636v13.82h0c-.178,21.171-.1,42.343-.1,63.514,0,9.877.429,9.583-7.818,14.986Q718.5,297,699.664,309.339c-10.375,6.794-11.5,6.2-21.806-.643-12.724-8.508-24.589-16.519-37.313-25.027C635.032,280.325,634.664,279.036,634.664,271.269Z" transform="translate(82.825 -10.012)"/><path class="x" d="M572.433,264.452V226.787c0-18.773-.021-18.773-16.123-18.871l-48.647.1c-5.547.011-7.3-.485-11.417-4.172-3.869-3.464-6.138-5.331-10.426-9.215-7.126-6.454-9.231-9.5-9.231,1.417v11.979h0c.154,18.349.086,36.7.086,55.047,0,8.561-.371,8.306,6.776,12.989q16.325,10.691,32.648,21.385c8.99,5.889,9.962,5.378,18.9-.557,11.028-7.374,21.312-14.317,32.34-21.691C572.114,272.3,572.433,271.182,572.433,264.452Z" transform="translate(32.433 -3.823)"/></g><g class="y" transform="translate(859.157 0)"><path class="d" d="M787.361,339.893V276.155c0-31.77-.035-31.77-27.285-31.935l-82.324.165c-9.386.018-12.356-.821-19.32-7.059-6.547-5.863-10.389-9.022-17.644-15.595-12.058-10.924-15.621-16.083-15.621,2.4V244.4h0c.261,31.051.146,62.105.146,93.156,0,14.487-.631,14.055,11.467,21.979q27.624,18.095,55.248,36.192c15.215,9.966,16.859,9.1,31.98-.943,18.663-12.478,36.065-24.229,54.729-36.707,8.086-4.9,8.625-6.794,8.625-18.184" transform="translate(-618.673 -135.383)"/><path class="e" d="M571.316,366.867V300.635c0-33.013.037-33.013,28.352-33.184l85.544.171c9.754.018,12.839-.854,20.076-7.334,6.8-6.092,10.795-9.376,18.335-16.206,12.53-11.349,16.232-16.712,16.232,2.494V267.64h0c-.271,32.266-.153,64.533-.153,96.8,0,15.055.655,14.606-11.914,22.84l-57.408,37.607c-15.811,10.357-17.519,9.456-33.231-.979-19.394-12.967-37.475-25.178-56.869-38.143-8.4-5.1-8.964-7.06-8.964-18.9" transform="translate(-503.315 -193.751)"/><path class="f" d="M570.452,272.455V229.869c0-21.227.024-21.227,18.231-21.338l55,.111c6.271.013,8.255-.548,12.909-4.716,4.373-3.917,6.941-6.028,11.788-10.419,8.056-7.3,10.438-10.746,10.438,1.6v13.545h0c-.174,20.745-.1,41.493-.1,62.239,0,9.679.42,9.392-7.662,14.686l-36.913,24.181c-10.165,6.66-11.264,6.08-21.366-.63-12.47-8.337-24.1-16.189-36.567-24.526-5.4-3.276-5.763-4.539-5.763-12.149" transform="translate(-440.655 -14.204)"/><path class="g" d="M250.09,386.78v-57.2c0-28.513.033-28.513,24.489-28.662l73.885.149c8.425.016,11.089-.738,17.34-6.336,5.875-5.262,9.323-8.1,15.835-14,10.822-9.8,14.021-14.434,14.021,2.152v18.194h0c-.234,27.869-.13,55.739-.13,83.606,0,13,.565,12.615-10.292,19.727l-49.585,32.483c-13.656,8.944-15.131,8.167-28.7-.847-16.751-11.2-32.368-21.745-49.118-32.944-7.258-4.4-7.743-6.1-7.743-16.32" transform="translate(264.198 -254.869)"/><path class="h" d="M674.212,351.4V322.762c0-14.274-.017-14.274-12.26-14.347l-36.985.074c-4.216.008-5.551-.369-8.679-3.172-2.941-2.633-4.668-4.053-7.927-7.006-5.418-4.907-7.018-7.225-7.018,1.077V308.5h0c.117,13.951.066,27.9.066,41.853,0,6.508-.283,6.315,5.15,9.875q12.412,8.129,24.822,16.26c6.835,4.477,7.574,4.087,14.367-.424,8.385-5.606,16.2-10.886,24.588-16.492,3.633-2.2,3.877-3.052,3.877-8.17" transform="translate(-475.09 -220.277)"/><path class="h" d="M595.363,379.234V299.991c0-39.5-.045-39.5-33.923-39.7l-102.349.205c-11.671.022-15.362-1.021-24.02-8.775-8.139-7.29-12.915-11.218-21.936-19.39-14.991-13.579-19.423-19.994-19.423,2.982v25.2h0c.325,38.6.182,77.211.182,115.817,0,18.01-.782,17.474,14.256,27.326l68.687,45c18.916,12.391,20.96,11.315,39.758-1.171,23.2-15.514,44.839-30.124,68.042-45.638,10.053-6.095,10.725-8.446,10.725-22.606" transform="translate(-121.374 -200.822)"/><path class="i" d="M324.564,391.56V334.969c0-28.209.032-28.209,24.225-28.355l73.092.146c8.335.017,10.971-.728,17.154-6.267,5.813-5.2,9.223-8.01,15.666-13.847,10.707-9.7,13.871-14.279,13.871,2.131v18h0c-.232,27.57-.13,55.141-.13,82.711,0,12.861.56,12.479-10.181,19.515l-49.053,32.134c-13.51,8.849-14.969,8.08-28.394-.838-16.57-11.079-32.021-21.512-48.592-32.591-7.18-4.353-7.658-6.033-7.658-16.145" transform="translate(93.197 -266.963)"/><path class="j" d="M223.423,348.517V270.256c0-39.009.043-39.009,33.5-39.211l101.081.2c11.526.022,15.172-1.009,23.724-8.667,8.036-7.2,12.755-11.078,21.663-19.149,14.806-13.412,19.182-19.748,19.182,2.945v24.89h0c-.32,38.126-.179,76.254-.179,114.381,0,17.788.773,17.257-14.08,26.988l-67.835,44.438c-18.682,12.237-20.7,11.174-39.267-1.158-22.916-15.322-44.283-29.75-67.2-45.072-9.929-6.02-10.591-8.341-10.591-22.327" transform="translate(271.979 -131.272)"/><path class="k" d="M106.969,391.919V305.382c0-43.133.049-43.133,37.045-43.358l111.77.225c12.744.024,16.775-1.116,26.231-9.584,8.886-7.96,14.1-12.25,23.954-21.175,16.371-14.829,21.209-21.835,21.209,3.258V262.27h0c-.353,42.158-.2,84.318-.2,126.477,0,19.668.855,19.083-15.568,29.841L236.4,467.725c-20.658,13.532-22.89,12.356-43.419-1.279-25.338-16.942-48.966-32.9-74.3-49.838-10.979-6.657-11.712-9.225-11.712-24.689" transform="translate(520.602 -218.116)"/><path class="h" d="M391.79,326.361V282.654c0-21.787-.025-21.787-18.711-21.9l-56.453.113c-6.436.013-8.473-.562-13.249-4.84-4.488-4.021-7.124-6.187-12.1-10.695-8.268-7.491-10.712-11.029-10.712,1.645v13.9h0c.179,21.293.1,42.588.1,63.881,0,9.933-.432,9.638,7.863,15.072l37.886,24.818c10.433,6.835,11.56,6.241,21.929-.647,12.8-8.557,24.731-16.614,37.529-25.171,5.546-3.363,5.916-4.659,5.916-12.47" transform="translate(230.279 -137.257)"/><path class="l" d="M208.285,309.319V259.293c0-24.935.029-24.935,21.417-25.064l64.613.129c7.367.014,9.7-.644,15.164-5.54,5.137-4.6,8.152-7.081,13.847-12.241,9.464-8.573,12.262-12.622,12.262,1.884v15.911h0c-.205,24.37-.116,48.743-.116,73.114,0,11.37.5,11.032-9,17.25l-43.362,28.406c-11.942,7.823-13.232,7.143-25.1-.74-14.648-9.794-28.306-19.016-42.954-28.811C208.709,319.744,208.285,318.259,208.285,309.319Z" transform="translate(379.484 -87.285)"/><path class="i" d="M89.972,300.559V257.1c0-21.661.024-21.661,18.6-21.774l56.129.113c6.4.012,8.424-.561,13.172-4.813,4.463-4,7.083-6.151,12.03-10.634,8.221-7.446,10.65-10.965,10.65,1.636v13.822h0c-.178,21.171-.1,42.343-.1,63.513,0,9.878.429,9.583-7.819,14.986l-37.668,24.676c-10.373,6.8-11.494,6.2-21.8-.643-12.725-8.508-24.589-16.519-37.313-25.027-5.514-3.343-5.881-4.633-5.881-12.4" transform="translate(670.496 -77.882)"/><path class="d" d="M431.318,324.074V290.661c0-16.655-.018-16.655-14.3-16.742l-43.157.087c-4.92.009-6.477-.431-10.128-3.7-3.431-3.073-5.445-4.73-9.248-8.176-6.321-5.726-8.189-8.43-8.189,1.258v10.627h0c.136,16.277.076,32.555.076,48.834,0,7.594-.331,7.367,6.011,11.522l28.962,18.972c7.977,5.225,8.839,4.771,16.764-.494,9.784-6.541,18.906-12.7,28.691-19.242,4.239-2.571,4.521-3.562,4.521-9.533" transform="translate(103.895 -149.035)"/><path class="m" d="M360.19,280.878v-47.2c0-23.527.028-23.527,20.206-23.65l60.966.123c6.951.013,9.15-.609,14.308-5.228,4.847-4.342,7.693-6.681,13.066-11.549,8.93-8.088,11.569-11.909,11.569,1.777v15.013h0c-.194,22.995-.109,45.991-.109,68.986,0,10.728.468,10.409-8.491,16.277q-20.458,13.4-40.913,26.8c-11.268,7.382-12.486,6.739-23.684-.7-13.82-9.24-26.708-17.943-40.529-27.184C360.59,290.714,360.19,289.312,360.19,280.878Z" transform="translate(34.73 -26.064)"/><path class="n" d="M473.377,368.107v-68.2c0-34-.038-34-29.2-34.172l-88.088.177c-10.044.02-13.221-.879-20.674-7.553-7-6.273-11.115-9.654-18.879-16.687-12.9-11.688-16.716-17.21-16.716,2.566v21.691h0c.279,33.226.157,66.453.157,99.679,0,15.5-.674,15.039,12.27,23.518l59.115,38.727c16.281,10.664,18.041,9.737,34.221-1.009,19.969-13.352,38.59-25.926,58.559-39.277C472.8,382.317,473.377,380.3,473.377,368.107Z" transform="translate(123.985 -193.357)"/><path class="o" d="M463.374,294.219V258.493c0-17.808.021-17.808,15.295-17.9l46.143.092c5.262.01,6.926-.46,10.83-3.956,3.668-3.286,5.822-5.057,9.888-8.742,6.759-6.121,8.757-9.014,8.757,1.345v11.362h0c-.146,17.4-.083,34.811-.083,52.215,0,8.119.354,7.878-6.427,12.32q-15.483,10.142-30.967,20.285c-8.528,5.586-9.45,5.1-17.925-.528-10.462-6.995-20.216-13.581-30.676-20.575-4.533-2.748-4.836-3.808-4.836-10.193" transform="translate(-174.934 -76.018)"/><path class="p" d="M498.3,332.614V294.856c0-18.821-.021-18.821-16.164-18.919l-48.77.1c-5.56.011-7.319-.487-11.445-4.182-3.878-3.474-6.153-5.344-10.452-9.239-7.143-6.47-9.254-9.528-9.254,1.421v12.009h0c.154,18.4.086,36.79.086,55.186,0,8.582-.373,8.326,6.793,13.021q16.366,10.719,32.729,21.439c9.014,5.905,9.987,5.391,18.945-.557,11.057-7.392,21.366-14.354,32.421-21.746C497.979,340.482,498.3,339.363,498.3,332.614Z" transform="translate(-36.63 -161.615)"/><path class="q" d="M252.905,405.331V372.1c0-16.566-.018-16.566-14.228-16.652l-42.925.087c-4.895.009-6.443-.428-10.074-3.682-3.414-3.056-5.416-4.7-9.2-8.131-6.288-5.7-8.146-8.386-8.146,1.251v10.57h0c.136,16.19.076,32.383.076,48.573,0,7.554-.329,7.329,5.979,11.461L203.2,434.444c7.934,5.2,8.791,4.746,16.675-.491,9.732-6.507,18.8-12.634,28.537-19.139C252.623,412.255,252.905,411.27,252.905,405.331Z" transform="translate(516.718 -337.624)"/><path class="r" d="M605.8,385.142V342.6c0-21.2-.025-21.2-18.212-21.316l-54.949.111c-6.265.012-8.247-.548-12.9-4.712-4.369-3.914-6.934-6.022-11.776-10.41-8.048-7.29-10.427-10.734-10.427,1.6v13.531h0c.174,20.725.1,41.452.1,62.177,0,9.67-.42,9.381,7.653,14.671l36.876,24.157c10.156,6.652,11.253,6.074,21.346-.63,12.457-8.329,24.073-16.172,36.53-24.5,5.4-3.273,5.758-4.535,5.758-12.138" transform="translate(-269.58 -275.4)"/><path class="g" d="M519.877,335.129V280.173c0-27.392.03-27.392,23.525-27.534l70.978.142c8.093.016,10.654-.709,16.658-6.086,5.644-5.056,8.957-7.78,15.213-13.446,10.4-9.418,13.469-13.867,13.469,2.068V252.8h0c-.225,26.772-.126,53.544-.126,80.317,0,12.49.544,12.119-9.886,18.95l-47.634,31.205c-13.118,8.592-14.536,7.845-27.572-.813-16.091-10.759-31.095-20.891-47.186-31.649-6.972-4.228-7.437-5.858-7.437-15.678" transform="translate(-355.189 -138.912)"/><path class="s" d="M477.95,392.878V349.236c0-21.754.025-21.754,18.684-21.867l56.367.113c6.428.013,8.461-.562,13.23-4.833,4.481-4.015,7.112-6.178,12.08-10.679,8.257-7.479,10.7-11.012,10.7,1.643v13.881h0c-.178,21.26-.1,42.523-.1,63.785,0,9.919.432,9.624-7.851,15.049l-37.83,24.781c-10.418,6.825-11.543,6.232-21.9-.645-12.778-8.544-24.694-16.589-37.474-25.134C478.32,401.971,477.95,400.676,477.95,392.878Z" transform="translate(-229.018 -291.499)"/><path class="t" d="M144.4,259.021V219.876c0-19.511.022-19.511,16.757-19.612l50.558.1c5.764.011,7.589-.5,11.866-4.335,4.02-3.6,6.379-5.542,10.836-9.579,7.406-6.707,9.593-9.877,9.593,1.474v12.449h0c-.159,19.07-.09,38.141-.09,57.21,0,8.9.387,8.632-7.042,13.5l-33.929,22.227c-9.344,6.121-10.355,5.589-19.64-.58-11.461-7.664-22.149-14.879-33.611-22.543C144.731,267.177,144.4,266.015,144.4,259.021Z" transform="translate(555.437 11.216)"/><path class="u" d="M708.347,376.01V312.352c0-31.731-.036-31.731-27.251-31.9l-82.222.165c-9.375.018-12.34-.821-19.3-7.05-6.537-5.855-10.375-9.011-17.621-15.576-12.043-10.908-15.6-16.062-15.6,2.4v20.247h0c.261,31.012.146,62.026.146,93.039,0,14.468-.63,14.038,11.452,21.952l55.178,36.146c15.2,9.954,16.839,9.089,31.94-.94,18.64-12.464,36.02-24.2,54.66-36.663C707.808,389.274,708.347,387.387,708.347,376.01Z" transform="translate(-435.846 -219.207)"/><path class="v" d="M660.338,344.608V297.58c0-23.442.026-23.442,20.131-23.563l60.741.121c6.926.013,9.117-.606,14.255-5.208,4.83-4.326,7.665-6.656,13.018-11.506,8.9-8.06,11.526-11.867,11.526,1.769v14.957h0c-.192,22.911-.108,45.823-.108,68.732,0,10.689.465,10.372-8.461,16.218l-40.762,26.7c-11.227,7.354-12.44,6.715-23.6-.7-13.77-9.206-26.611-17.876-40.38-27.084C660.736,354.406,660.338,353.011,660.338,344.608Z" transform="translate(-660.338 -174.03)"/><path class="w" d="M746.142,271.269V227.812c0-21.661-.024-21.661-18.6-21.774l-56.129.113c-6.4.012-8.424-.56-13.172-4.813-4.463-4-7.083-6.151-12.03-10.633-8.221-7.448-10.651-10.966-10.651,1.636v13.82h0c.178,21.171.1,42.343.1,63.514,0,9.877-.429,9.583,7.818,14.986Q662.309,297,681.141,309.339c10.375,6.794,11.5,6.2,21.806-.643,12.724-8.508,24.589-16.519,37.313-25.027C745.774,280.325,746.142,279.036,746.142,271.269Z" transform="translate(-591.686 -10.012)"/><path class="x" d="M475.816,264.452V226.787c0-18.773.021-18.773,16.123-18.871l48.647.1c5.547.011,7.3-.485,11.417-4.172,3.869-3.464,6.138-5.331,10.426-9.215,7.126-6.454,9.231-9.5,9.231,1.417v11.979h0c-.154,18.349-.086,36.7-.086,55.047,0,8.561.371,8.306-6.776,12.989q-16.325,10.691-32.648,21.385c-8.99,5.889-9.962,5.378-18.9-.557-11.028-7.374-21.312-14.317-32.34-21.691C476.135,272.3,475.816,271.182,475.816,264.452Z" transform="translate(-208.737 -3.823)"/></g></g></g></svg>