<svg xmlns="http://www.w3.org/2000/svg" width="43.392" height="43.392" viewBox="0 0 43.392 43.392"><defs><style>.a{fill:#fbbd00;}.b{fill:#0f9d58;}.c{fill:#31aa52;}.d{fill:#3c79e6;}.e{fill:#cf2d48;}.f{fill:#eb4132;}</style></defs><path class="a" d="M10.17,113.418a11.455,11.455,0,0,1,1.621-5.888v-7.315H4.477a21.707,21.707,0,0,0,0,26.405h7.315v-7.315A11.455,11.455,0,0,1,10.17,113.418Z" transform="translate(0 -91.722)"/><path class="b" d="M201.085,374.575,196,379.659l5.085,5.085a21.531,21.531,0,0,0,13.2-4.477v-7.307h-7.307A11.524,11.524,0,0,1,201.085,374.575Z" transform="translate(-179.389 -341.353)"/><path class="c" d="M60.138,325.477l-7.315,7.314A22.038,22.038,0,0,0,54.7,334.93a21.554,21.554,0,0,0,15.341,6.354v-10.17A11.531,11.531,0,0,1,60.138,325.477Z" transform="translate(-48.346 -297.893)"/><path class="d" d="M277.7,202.3a21.888,21.888,0,0,0-.355-3.93l-.191-1.042H256v10.17h10.293a11.473,11.473,0,0,1-4.4,4.715l7.307,7.307a22.044,22.044,0,0,0,2.139-1.878A21.554,21.554,0,0,0,277.7,202.3Z" transform="translate(-234.304 -180.601)"/><path class="e" d="M209.235,13.546l.9.9,7.191-7.191-.9-.9A21.554,21.554,0,0,0,201.085,0L196,5.085l5.085,5.085A11.451,11.451,0,0,1,209.235,13.546Z" transform="translate(-179.389 0)"/><path class="f" d="M70.041,10.17V0A21.554,21.554,0,0,0,54.7,6.354a22.022,22.022,0,0,0-1.878,2.139l7.315,7.315a11.531,11.531,0,0,1,9.9-5.638Z" transform="translate(-48.345 0)"/></svg>