<svg xmlns="http://www.w3.org/2000/svg" width="31.045" height="31.045" viewBox="0 0 31.045 31.045"><defs><style>.a{fill:#fbbd00;}.b{fill:#0f9d58;}.c{fill:#31aa52;}.d{fill:#3c79e6;}.e{fill:#cf2d48;}.f{fill:#eb4132;}</style></defs><path class="a" d="M7.276,109.661a8.2,8.2,0,0,1,1.16-4.213v-5.233H3.2a15.53,15.53,0,0,0,0,18.892H8.436v-5.233A8.2,8.2,0,0,1,7.276,109.661Z" transform="translate(0 -94.139)"/><path class="b" d="M199.638,374.115,196,377.753l3.638,3.638a15.4,15.4,0,0,0,9.446-3.2v-5.228h-5.228A8.245,8.245,0,0,1,199.638,374.115Z" transform="translate(-184.116 -350.347)"/><path class="c" d="M58.056,325.477l-5.233,5.233a15.768,15.768,0,0,0,1.344,1.53,15.421,15.421,0,0,0,10.976,4.546v-7.276A8.25,8.25,0,0,1,58.056,325.477Z" transform="translate(-49.62 -305.742)"/><path class="d" d="M271.522,200.882a15.663,15.663,0,0,0-.254-2.812l-.137-.746H256V204.6h7.364a8.209,8.209,0,0,1-3.146,3.374l5.228,5.228a15.764,15.764,0,0,0,1.53-1.344A15.421,15.421,0,0,0,271.522,200.882Z" transform="translate(-240.478 -185.359)"/><path class="e" d="M205.469,9.691l.643.643,5.145-5.145-.643-.643A15.421,15.421,0,0,0,199.638,0L196,3.638l3.638,3.638A8.193,8.193,0,0,1,205.469,9.691Z" transform="translate(-184.116 0)"/><path class="f" d="M65.142,7.276V0A15.421,15.421,0,0,0,54.166,4.546a15.755,15.755,0,0,0-1.344,1.53l5.233,5.233a8.25,8.25,0,0,1,7.086-4.034Z" transform="translate(-49.619 0)"/></svg>