<svg xmlns="http://www.w3.org/2000/svg" width="23.788" height="21" viewBox="0 0 23.788 21"><defs><style>.a{fill:#222;}</style></defs><g transform="translate(0 -30)"><g transform="translate(0 30)"><path class="a" d="M17.469,30a5.632,5.632,0,0,0-3.517,1.216,8.012,8.012,0,0,0-2.058,2.475,8.012,8.012,0,0,0-2.058-2.475A5.632,5.632,0,0,0,6.319,30C2.716,30,0,32.946,0,36.854c0,4.221,3.389,7.109,8.519,11.481.871.742,1.859,1.584,2.885,2.482a.744.744,0,0,0,.979,0c1.026-.9,2.014-1.739,2.886-2.482,5.13-4.372,8.519-7.26,8.519-11.481C23.788,32.946,21.071,30,17.469,30Z" transform="translate(0 -30)"/></g></g></svg>