<svg xmlns="http://www.w3.org/2000/svg" width="37.182" height="32.825" viewBox="0 0 37.182 32.825"><defs><style>.a{fill:#adadad;}</style></defs><g transform="translate(0 -30)"><g transform="translate(0 30)"><path class="a" d="M27.306,30a8.8,8.8,0,0,0-5.5,1.9,12.524,12.524,0,0,0-3.217,3.868A12.523,12.523,0,0,0,15.375,31.9a8.8,8.8,0,0,0-5.5-1.9C4.246,30,0,34.605,0,40.713c0,6.6,5.3,11.112,13.317,17.946,1.362,1.161,2.905,2.476,4.51,3.879a1.162,1.162,0,0,0,1.53,0c1.6-1.4,3.148-2.719,4.511-3.88,8.018-6.833,13.316-11.347,13.316-17.945C37.182,34.605,32.936,30,27.306,30Z" transform="translate(0 -30)"/></g></g></svg>