<svg xmlns="http://www.w3.org/2000/svg" width="10.084" height="14.398" viewBox="0 0 10.084 14.398"><defs><style>.a{fill:#585858;}</style></defs><g transform="translate(-8.203)"><path class="a" d="M22.4,12a1.841,1.841,0,1,0,1.841,1.841A1.843,1.843,0,0,0,22.4,12Zm0,3.155a1.315,1.315,0,1,1,1.315-1.315A1.316,1.316,0,0,1,22.4,15.155Z" transform="translate(-9.106 -8.845)"/><path class="a" d="M16.81,1.477a5.042,5.042,0,0,0-7.131,0,5.743,5.743,0,0,0-.474,7.087l4.04,5.834,4.034-5.826A5.745,5.745,0,0,0,16.81,1.477Zm.042,6.787-3.607,5.209L9.632,8.256a5.189,5.189,0,0,1,.42-6.408,4.516,4.516,0,0,1,6.387,0A5.191,5.191,0,0,1,16.852,8.264Z" transform="translate(0 0)"/></g></svg>