<svg xmlns="http://www.w3.org/2000/svg" width="32.967" height="32.967" viewBox="0 0 32.967 32.967"><defs><style>.a{fill:#fff;}</style></defs><g transform="translate(0 0)"><path class="a" d="M213.31,210.155A3.155,3.155,0,1,1,210.155,207,3.155,3.155,0,0,1,213.31,210.155Zm0,0" transform="translate(-193.671 -193.671)"/><path class="a" d="M150.623,137.666a3.134,3.134,0,0,0-1.8-1.8,5.237,5.237,0,0,0-1.757-.326c-1-.046-1.3-.055-3.825-.055s-2.827.01-3.825.055a5.24,5.24,0,0,0-1.757.326,3.136,3.136,0,0,0-1.8,1.8,5.238,5.238,0,0,0-.326,1.758c-.046,1-.055,1.3-.055,3.825s.01,2.827.055,3.825a5.237,5.237,0,0,0,.326,1.757,3.134,3.134,0,0,0,1.8,1.8,5.231,5.231,0,0,0,1.758.326c1,.046,1.3.055,3.825.055s2.827-.01,3.825-.055a5.23,5.23,0,0,0,1.758-.326,3.134,3.134,0,0,0,1.8-1.8,5.241,5.241,0,0,0,.326-1.757c.046-1,.055-1.3.055-3.825s-.01-2.827-.055-3.825A5.23,5.23,0,0,0,150.623,137.666Zm-7.379,10.443a4.86,4.86,0,1,1,4.86-4.86A4.86,4.86,0,0,1,143.244,148.108Zm5.053-8.777a1.136,1.136,0,1,1,1.136-1.136A1.136,1.136,0,0,1,148.3,139.331Zm0,0" transform="translate(-126.761 -126.764)"/><path class="a" d="M16.484,0A16.484,16.484,0,1,0,32.967,16.484,16.485,16.485,0,0,0,16.484,0Zm9.408,20.386a6.944,6.944,0,0,1-.44,2.3,4.84,4.84,0,0,1-2.768,2.768,6.949,6.949,0,0,1-2.3.44c-1.009.046-1.332.057-3.9.057s-2.893-.011-3.9-.057a6.949,6.949,0,0,1-2.3-.44,4.84,4.84,0,0,1-2.768-2.768,6.943,6.943,0,0,1-.44-2.3c-.047-1.01-.057-1.332-.057-3.9s.011-2.893.057-3.9a6.945,6.945,0,0,1,.44-2.3,4.843,4.843,0,0,1,2.768-2.768,6.951,6.951,0,0,1,2.3-.44c1.009-.046,1.332-.057,3.9-.057s2.893.011,3.9.057a6.952,6.952,0,0,1,2.3.439,4.841,4.841,0,0,1,2.768,2.768,6.944,6.944,0,0,1,.44,2.3c.046,1.009.057,1.332.057,3.9S25.938,19.377,25.892,20.386Zm0,0" transform="translate(0 0)"/></g></svg>