<svg xmlns="http://www.w3.org/2000/svg" width="19.861" height="17.997" viewBox="0 0 19.861 17.997"><defs><style>.a{fill:#fff;}</style></defs><g transform="translate(0 -0.5)"><path class="a" d="M19.139,7.887h-.355A9,9,0,0,0,3.567,3.136a8.932,8.932,0,0,0-2.5,4.79H.721A.722.722,0,0,0,0,8.647v2.621a.722.722,0,0,0,.721.721h.563a9,9,0,0,0,2.786,4.337.291.291,0,0,0,.38-.442,8.434,8.434,0,0,1-.96-.97,11.17,11.17,0,0,1,1.358-.469,9.655,9.655,0,0,0,.732,1.108,11.356,11.356,0,0,0,1.977,2.02,8.346,8.346,0,0,1-1.708-.713.291.291,0,0,0-.283.509A9.006,9.006,0,0,0,18.576,12h.563a.722.722,0,0,0,.721-.721V8.608A.722.722,0,0,0,19.139,7.887Zm-.947,0H16.166c-.024-.151-.051-.3-.082-.453a10.262,10.262,0,0,0-.807-2.386L15.438,5a11.1,11.1,0,0,0,1.306-.449A8.324,8.324,0,0,1,18.192,7.887Zm-2.61.039H12.573c-.01-.146-.021-.292-.034-.438-.058-.652-.143-1.282-.253-1.886A18.853,18.853,0,0,0,14.7,5.2a9.672,9.672,0,0,1,.812,2.356C15.539,7.677,15.561,7.8,15.582,7.926Zm.3-4.379q.257.257.489.533a11.241,11.241,0,0,1-1.093.364L15,4.52a10.233,10.233,0,0,0-.608-.961A10,10,0,0,0,12.34,1.431,8.374,8.374,0,0,1,15.881,3.547ZM10.828,1.13A9.466,9.466,0,0,1,13.92,3.9q.266.373.494.768a18.414,18.414,0,0,1-2.242.364,11.981,11.981,0,0,0-1.487-3.913Zm-.9-.048h.021a10.454,10.454,0,0,1,1.638,4q-.933.067-1.911.054c-.442-.006-.915-.02-1.408-.05a10.459,10.459,0,0,1,1.639-4Zm-.755.034A11.99,11.99,0,0,0,7.685,5.04,16.709,16.709,0,0,1,5.427,4.7q.236-.411.513-.8A9.47,9.47,0,0,1,9.032,1.13Zm-1.6,4.5c-.109.6-.193,1.226-.25,1.873-.013.146-.024.292-.034.438H4.278c.021-.125.043-.249.069-.373a9.679,9.679,0,0,1,.8-2.324A16.941,16.941,0,0,0,7.572,5.615ZM3.979,3.547A8.374,8.374,0,0,1,7.521,1.431,10,10,0,0,0,5.466,3.559a10.184,10.184,0,0,0-.624.991,11.145,11.145,0,0,1-1.353-.468Q3.721,3.806,3.979,3.547ZM3.116,4.556a11.548,11.548,0,0,0,1.454.522,10.266,10.266,0,0,0-.793,2.357q-.051.245-.089.492H1.661A8.324,8.324,0,0,1,3.116,4.556ZM.721,11.407a.139.139,0,0,1-.139-.139V8.647a.139.139,0,0,1,.139-.139H9.128a.291.291,0,0,0,0-.582H7.871c.009-.129.019-.258.03-.386.058-.652.143-1.281.254-1.88.531.034,1.04.049,1.515.056l.344,0q.862,0,1.691-.063c.111.6.2,1.231.254,1.885q.017.193.03.386H10.946a.291.291,0,0,0,0,.582h4.517v2.9H.721Zm14.672.582A9.268,9.268,0,0,1,14.7,13.8a18.864,18.864,0,0,0-2.41-.406c.084-.455.152-.925.205-1.4h2.9Zm-3.484,0c-.053.463-.12.915-.2,1.353q-.995-.075-2.037-.061c-.475.007-.986.022-1.518.056-.082-.437-.149-.887-.2-1.348ZM3.118,14.44a8.408,8.408,0,0,1-1.227-2.451H3.866a9.872,9.872,0,0,0,.7,1.93A11.531,11.531,0,0,0,3.118,14.44Zm1.35-2.451h2.9c.053.476.121.941.2,1.393a16.941,16.941,0,0,0-2.424.385A9.269,9.269,0,0,1,4.468,11.989Zm4.562,5.876A10.071,10.071,0,0,1,6.042,15.2a9.043,9.043,0,0,1-.607-.9,16.73,16.73,0,0,1,2.249-.341,14.993,14.993,0,0,0,.409,1.511A11.389,11.389,0,0,0,9.179,17.88Zm.9.049H9.909a9.381,9.381,0,0,1-1.263-2.629c-.143-.433-.268-.892-.375-1.372.493-.03.966-.044,1.408-.05q.977-.014,1.911.054c-.107.478-.232.936-.374,1.368a9.376,9.376,0,0,1-1.263,2.629Zm.75-.033a11.372,11.372,0,0,0,1.087-2.413,14.894,14.894,0,0,0,.407-1.5,18.412,18.412,0,0,1,2.232.362,9.034,9.034,0,0,1-.588.87,10.072,10.072,0,0,1-2.99,2.667Zm5.2-2.432A8.372,8.372,0,0,1,12.3,17.578a11.354,11.354,0,0,0,1.983-2.024A9.621,9.621,0,0,0,15,14.475l.281.077a11.283,11.283,0,0,1,1.092.364C16.215,15.1,16.053,15.278,15.881,15.449Zm.862-1.009a11.112,11.112,0,0,0-1.306-.448l-.161-.044A9.868,9.868,0,0,0,15.991,12h1.976A8.323,8.323,0,0,1,16.743,14.441Zm2.535-3.173a.139.139,0,0,1-.139.139H16.046v-2.9h3.094a.139.139,0,0,1,.139.139Zm0,0"/><path class="a" d="M49.934,220.921c0,.043-.065.088-.14.088s-.138-.045-.138-.088v-1.444c0-.052.056-.086.138-.086s.14.035.14.086v.66a.3.3,0,0,1,.271-.163.414.414,0,0,1,.37.437v.51c0,.058-.071.088-.14.088s-.138-.03-.138-.088v-.51a.2.2,0,0,0-.187-.194.183.183,0,0,0-.177.194v.51Zm0,0" transform="translate(-47.73 -210.4)"/><path class="a" d="M82.227,224.13c0,.084.03.114.121.114h.084a.117.117,0,1,1,0,.235h-.084c-.258,0-.4-.105-.4-.349v-1.044c0-.052.073-.086.138-.086s.14.034.14.086v.37h.254c.045,0,.071.052.071.1s-.026.1-.071.1h-.254v.471Zm0,0" transform="translate(-78.77 -213.869)"/><path class="a" d="M104.8,224.13c0,.084.03.114.12.114h.084a.117.117,0,1,1,0,.235h-.084c-.258,0-.4-.105-.4-.349v-1.044c0-.052.073-.086.138-.086s.14.034.14.086v.37h.254c.045,0,.071.052.071.1s-.026.1-.071.1H104.8Zm0,0" transform="translate(-100.473 -213.869)"/><path class="a" d="M127.479,234.525v.065a.338.338,0,0,1,.29-.163.413.413,0,0,1,.385.437v.176a.427.427,0,0,1-.377.441.32.32,0,0,1-.282-.17v.538c0,.045-.065.088-.142.088s-.135-.043-.135-.088v-1.323c0-.052.058-.086.131-.086S127.479,234.473,127.479,234.525Zm.4.338a.2.2,0,0,0-.2-.194.188.188,0,0,0-.185.194v.215a.209.209,0,0,0,.189.159.205.205,0,0,0,.192-.2Zm0,0" transform="translate(-122.284 -224.852)"/><path class="a" d="M158.329,235.177c0-.189-.51-.071-.51-.43,0-.153.1-.321.385-.321.174,0,.342.06.342.14,0,.039-.036.133-.1.133s-.118-.062-.237-.062-.151.054-.151.1c0,.157.516.05.516.432,0,.192-.142.314-.4.314-.219,0-.389-.09-.389-.185,0-.045.039-.123.092-.123s.11.1.291.1C158.3,235.269,158.329,235.22,158.329,235.177Zm0,0" transform="translate(-151.668 -224.852)"/><path class="a" d="M185.54,237.846a.149.149,0,0,1-.144.146.146.146,0,1,1,.144-.146Zm0,.628a.149.149,0,0,1-.144.146.146.146,0,1,1,.144-.146Zm0,0" transform="translate(-178.064 -227.998)"/><path class="a" d="M200.418,218.437a.083.083,0,0,1-.009.039l-.772,1.562a.094.094,0,0,1-.084.047.1.1,0,0,1-.1-.095.073.073,0,0,1,.011-.037l.772-1.569a.084.084,0,0,1,.078-.045A.1.1,0,0,1,200.418,218.437Zm0,0" transform="translate(-191.713 -209.39)"/><path class="a" d="M217.175,218.437a.085.085,0,0,1-.009.039l-.773,1.562a.093.093,0,0,1-.084.047.1.1,0,0,1-.1-.095.072.072,0,0,1,.011-.037l.772-1.569a.084.084,0,0,1,.078-.045A.1.1,0,0,1,217.175,218.437Zm0,0" transform="translate(-207.82 -209.39)"/><path class="a" d="M245.457,235.488c-.015.037-.062.05-.11.05s-.1-.017-.114-.05l-.166-.469-.163.467c-.013.034-.065.052-.118.052a.108.108,0,0,1-.108-.052l-.331-.85a.088.088,0,0,1-.011-.041c0-.067.108-.114.181-.114a.079.079,0,0,1,.08.045l.215.611.161-.532c.015-.049.052-.056.095-.056s.08.007.095.056l.159.534.217-.613a.08.08,0,0,1,.08-.045c.069,0,.179.047.179.116a.079.079,0,0,1-.009.039Zm0,0" transform="translate(-234.858 -224.904)"/><path class="a" d="M287.231,235.488c-.015.037-.062.05-.11.05s-.1-.017-.114-.05l-.166-.469-.164.467c-.013.034-.064.052-.118.052a.108.108,0,0,1-.108-.052l-.331-.85a.088.088,0,0,1-.011-.041c0-.067.108-.114.181-.114a.079.079,0,0,1,.08.045l.215.611.161-.532c.015-.049.052-.056.095-.056s.08.007.095.056l.159.534.217-.613a.08.08,0,0,1,.08-.045c.069,0,.179.047.179.116a.079.079,0,0,1-.009.039Zm0,0" transform="translate(-275.011 -224.904)"/><path class="a" d="M329.008,235.488c-.015.037-.062.05-.11.05s-.1-.017-.114-.05l-.166-.469-.164.467c-.013.034-.065.052-.118.052a.108.108,0,0,1-.108-.052l-.331-.85a.088.088,0,0,1-.011-.041c0-.067.108-.114.181-.114a.079.079,0,0,1,.08.045l.215.611.161-.532c.015-.049.052-.056.095-.056s.08.007.095.056l.159.534.217-.613a.08.08,0,0,1,.08-.045c.069,0,.179.047.179.116a.079.079,0,0,1-.009.039Zm0,0" transform="translate(-315.168 -224.904)"/><path class="a" d="M425.913,214.082l-.314-.046-.14-.285a.437.437,0,0,0-.784,0l-.141.285-.314.046a.437.437,0,0,0-.242.745l.227.222-.054.313a.437.437,0,0,0,.634.461l.281-.148.281.148a.437.437,0,0,0,.634-.461l-.054-.313.227-.222a.437.437,0,0,0-.242-.745Zm-.447.6a.437.437,0,0,0-.126.387l.017.1-.088-.046a.437.437,0,0,0-.407,0l-.088.046.017-.1a.437.437,0,0,0-.126-.387l-.071-.069.1-.014a.437.437,0,0,0,.329-.239l.044-.089.044.089a.437.437,0,0,0,.329.239l.1.014Zm0,0" transform="translate(-407.405 -204.745)"/></g></svg>