<svg xmlns="http://www.w3.org/2000/svg" width="23.629" height="17.786" viewBox="0 0 23.629 17.786"><defs><style>.a{fill:#fff;}</style></defs><g transform="translate(0 -7.434)"><path class="a" d="M30.9,48.251H15.1a1.179,1.179,0,1,1,0-2.358H30.9a1.179,1.179,0,0,1,0,2.358Z" transform="translate(-8.449 -23.344)"/><path class="a" d="M30.9,29.42H15.1a1.179,1.179,0,0,1,0-2.358H30.9a1.179,1.179,0,0,1,0,2.358Z" transform="translate(-8.449 -11.914)"/><path class="a" d="M30.9,10.589H15.1a1.179,1.179,0,0,1,0-2.358H30.9a1.179,1.179,0,0,1,0,2.358Z" transform="translate(-8.449 -0.484)"/><circle class="a" cx="1.583" cy="1.583" r="1.583" transform="translate(0 7.434)"/><circle class="a" cx="1.583" cy="1.583" r="1.583" transform="translate(0 14.744)"/><circle class="a" cx="1.583" cy="1.583" r="1.583" transform="translate(0 22.053)"/></g></svg>