<svg xmlns="http://www.w3.org/2000/svg" width="21.518" height="28.69" viewBox="0 0 21.518 28.69"><defs><style>.a{fill:#adadad;}</style></defs><g transform="translate(-64)"><g transform="translate(64)"><path class="a" d="M84.92,10.759H83.127V8.368a8.368,8.368,0,0,0-16.736,0v2.391H64.6a.6.6,0,0,0-.6.6V26.3a2.393,2.393,0,0,0,2.391,2.391H83.127A2.393,2.393,0,0,0,85.518,26.3V11.357A.6.6,0,0,0,84.92,10.759ZM76.548,23.245a.6.6,0,0,1-.594.664H73.563a.6.6,0,0,1-.594-.664l.377-3.391a2.365,2.365,0,0,1-.978-1.923,2.391,2.391,0,1,1,4.782,0,2.365,2.365,0,0,1-.978,1.923ZM79.54,10.759H69.977V8.368a4.782,4.782,0,1,1,9.563,0Z" transform="translate(-64)"/></g></g></svg>