<svg xmlns="http://www.w3.org/2000/svg" width="30" height="22.852" viewBox="0 0 30 22.852"><defs><style>.a{fill:#adadad;}</style></defs><g transform="translate(0 -61)"><g transform="translate(1.507 61)"><path class="a" d="M51.577,61H26.851a2.606,2.606,0,0,0-1.13.264L39.155,74.7,42.166,71.8h0l10.54-10.54A2.606,2.606,0,0,0,51.577,61Z" transform="translate(-25.721 -61)"/></g><g transform="translate(19.817 62.507)"><g transform="translate(0 0)"><path class="a" d="M348.132,86.728l-9.919,9.918,9.919,9.919a2.606,2.606,0,0,0,.264-1.13V87.857A2.606,2.606,0,0,0,348.132,86.728Z" transform="translate(-338.213 -86.728)"/></g></g><g transform="translate(0 62.507)"><g transform="translate(0 0)"><path class="a" d="M.264,86.721A2.606,2.606,0,0,0,0,87.851v17.578a2.607,2.607,0,0,0,.264,1.129l9.919-9.918Z" transform="translate(0 -86.721)"/></g></g><g transform="translate(1.507 73.669)"><g transform="translate(0 0)"><path class="a" d="M42.782,277.211l-3.011,2.894a.878.878,0,0,1-1.243,0l-2.894-2.894-9.919,9.918a2.606,2.606,0,0,0,1.13.264H51.571a2.606,2.606,0,0,0,1.13-.264Z" transform="translate(-25.714 -277.211)"/></g></g></g></svg>