<svg xmlns="http://www.w3.org/2000/svg" width="26.361" height="21.058" viewBox="0 0 26.361 21.058"><defs><style>.a{fill:#222;}</style></defs><g transform="translate(0 24.34) rotate(-90)"><path class="a" d="M16.221,26.361a.4.4,0,0,1-.4-.4V.4a.4.4,0,0,1,.808,0V25.957A.4.4,0,0,1,16.221,26.361Z" transform="translate(-2.41)"/><path class="a" d="M13.81,30.032h0a.407.407,0,0,1-.286-.118L3.4,19.787a.4.4,0,0,1,.571-.571l9.838,9.841,9.842-9.841a.4.4,0,0,1,.571.571L14.095,29.913A.4.4,0,0,1,13.81,30.032Z" transform="translate(0 -3.671)"/></g></svg>