<svg xmlns="http://www.w3.org/2000/svg" width="69.867" height="69.867" viewBox="0 0 69.867 69.867"><defs><style>.a{fill:#adadad;}</style></defs><path class="a" d="M151.3,275.98q0-.219,0-.44a19.65,19.65,0,0,0-39.3.11q0,.228.005.454a14.63,14.63,0,0,0,11.108,13.768,34.879,34.879,0,0,0,17.073,0A14.647,14.647,0,0,0,151.3,275.98Z" transform="translate(-96.717 -221.066)"/><path class="a" d="M59.634,10.231A34.935,34.935,0,0,0,8.222,57.45q.927,1.1,1.944,2.119a.682.682,0,0,0,1.149-.613A24.034,24.034,0,0,1,25.681,32.421a.68.68,0,0,0,.213-1.115,13.1,13.1,0,1,1,18.079,0,.68.68,0,0,0,.213,1.115A24.033,24.033,0,0,1,58.551,58.957a.682.682,0,0,0,1.149.613q1.015-1.02,1.945-2.12a34.937,34.937,0,0,0-2.011-47.218Z" transform="translate(0 0)"/><ellipse class="a" cx="8.5" cy="9" rx="8.5" ry="9" transform="translate(26 13)"/></svg>