<svg xmlns="http://www.w3.org/2000/svg" width="13.31" height="23.488" viewBox="0 0 13.31 23.488"><defs><style>.a{fill:#f7681a;}</style></defs><g transform="translate(-110.933)"><g transform="translate(115.239 1.174)"><g transform="translate(0)"><path class="a" d="M209.107,25.6h-3.915a.391.391,0,1,0,0,.783h3.915a.391.391,0,0,0,0-.783Z" transform="translate(-204.801 -25.6)"/></g></g><g transform="translate(121.503 1.174)"><path class="a" d="M342.117,25.6h-.391a.391.391,0,0,0,0,.783h.391a.391.391,0,1,0,0-.783Z" transform="translate(-341.334 -25.6)"/></g><g transform="translate(116.022 19.965)"><g transform="translate(0)"><path class="a" d="M223.919,435.2h-.972a1.081,1.081,0,0,0-1.08,1.08v.189a1.081,1.081,0,0,0,1.08,1.08h.972a1.081,1.081,0,0,0,1.08-1.08v-.189A1.081,1.081,0,0,0,223.919,435.2Zm.3,1.269a.3.3,0,0,1-.3.3h-.972a.3.3,0,0,1-.3-.3v-.189a.3.3,0,0,1,.3-.3h.972a.3.3,0,0,1,.3.3Z" transform="translate(-221.867 -435.2)"/></g></g><g transform="translate(110.933)"><g transform="translate(0)"><path class="a" d="M122.828,0h-10.48a1.417,1.417,0,0,0-1.415,1.415V22.073a1.417,1.417,0,0,0,1.415,1.415h10.48a1.417,1.417,0,0,0,1.415-1.415V1.415A1.417,1.417,0,0,0,122.828,0Zm.632,22.073a.633.633,0,0,1-.632.632h-10.48a.633.633,0,0,1-.632-.632V1.415a.633.633,0,0,1,.632-.632h10.48a.633.633,0,0,1,.632.632V22.073Z" transform="translate(-110.933)"/></g></g><g transform="translate(110.933 2.349)"><g transform="translate(0)"><path class="a" d="M123.853,51.2H111.325a.392.392,0,0,0-.391.391V68.033a.392.392,0,0,0,.391.391h12.527a.392.392,0,0,0,.391-.391V51.591A.392.392,0,0,0,123.853,51.2Zm-.391,16.442H111.717V51.983h11.744Z" transform="translate(-110.934 -51.2)"/></g></g></g></svg>