<svg xmlns="http://www.w3.org/2000/svg" width="32.37" height="32.37" viewBox="0 0 32.37 32.37"><defs><style>.a{fill:#adadad;}</style></defs><g transform="translate(0 0)"><g transform="translate(0 0)"><path class="a" d="M27.628,4.738A16.185,16.185,0,1,0,32.37,16.181,16.185,16.185,0,0,0,27.628,4.738ZM24.511,22.545l0,0v-.005l-.82.815a4.316,4.316,0,0,1-4.073,1.165,14.341,14.341,0,0,1-4.165-1.867,19.244,19.244,0,0,1-3.286-2.649,19.391,19.391,0,0,1-2.455-2.978,15.1,15.1,0,0,1-1.845-3.733A4.316,4.316,0,0,1,8.945,8.887l.96-.96a.685.685,0,0,1,.969,0l0,0,3.032,3.032a.685.685,0,0,1,0,.969l0,0-1.78,1.78a1.451,1.451,0,0,0-.151,1.888,20.822,20.822,0,0,0,2.131,2.487,20.694,20.694,0,0,0,2.805,2.358,1.462,1.462,0,0,0,1.867-.162L20.5,18.534a.685.685,0,0,1,.969,0l0,0,3.037,3.043A.685.685,0,0,1,24.511,22.545Z" transform="translate(0 0)"/></g></g></svg>