<svg xmlns="http://www.w3.org/2000/svg" width="26.361" height="21.059" viewBox="0 0 26.361 21.059"><defs><style>.a{opacity:0.3;}.b{fill:#585858;}</style></defs><g class="a" transform="translate(0 21.059) rotate(-90)"><path class="b" d="M.4,0A.4.4,0,0,0,0,.4V25.957a.4.4,0,0,0,.808,0V.4A.4.4,0,0,0,.4,0Z" transform="translate(10.126 0)"/><path class="b" d="M10.528,0h0a.407.407,0,0,0-.286.118L.118,10.245a.4.4,0,0,0,.571.571L10.527.975l9.842,9.841a.4.4,0,0,0,.571-.571L10.813.119A.4.4,0,0,0,10.528,0Z" transform="translate(0 0)"/></g></svg>