<svg xmlns="http://www.w3.org/2000/svg" width="13.31" height="18.307" viewBox="0 0 13.31 18.307"><defs><style>.a{fill:#adadad;}</style></defs><path class="a" d="M82.655,0A6.556,6.556,0,0,0,76,6.436a6.266,6.266,0,0,0,.993,3.384l5.283,8.233a.559.559,0,0,0,.471.254h0a.558.558,0,0,0,.471-.261l5.148-8.313a6.269,6.269,0,0,0,.939-3.3A6.556,6.556,0,0,0,82.655,0ZM87.42,9.183,82.739,16.74l-4.8-7.485A5.227,5.227,0,0,1,77.1,6.436a5.555,5.555,0,0,1,11.1,0A5.226,5.226,0,0,1,87.42,9.183Z" transform="translate(-76 0)"/><g transform="translate(3.328 3.218)"><path class="a" d="M169.328,90a3.22,3.22,0,1,0,3.328,3.218A3.278,3.278,0,0,0,169.328,90Zm0,5.371a2.154,2.154,0,1,1,2.222-2.152A2.192,2.192,0,0,1,169.328,95.371Z" transform="translate(-166 -90)"/></g></svg>