<svg xmlns="http://www.w3.org/2000/svg" width="46.381" height="46.381" viewBox="0 0 46.381 46.381"><defs><style>.a{isolation:isolate;}.b{fill:#61ad24;}</style></defs><g class="a" transform="translate(2.999)"><g transform="translate(-2.999)"><path class="b" d="M23.191,0A23.191,23.191,0,1,0,46.382,23.19,23.191,23.191,0,0,0,23.191,0ZM20.612,23.19a4.068,4.068,0,0,1-.243,1.376l6.473,3.114a4.155,4.155,0,1,1-1.017,2.112l-6.89-3.314a4.074,4.074,0,1,1,0-6.576l6.891-3.313A4.078,4.078,0,1,1,26.842,18.7l-6.473,3.113A4.062,4.062,0,0,1,20.612,23.19Z" transform="translate(-0.001)"/></g></g></svg>