<svg xmlns="http://www.w3.org/2000/svg" width="53.755" height="53.755" viewBox="0 0 53.755 53.755"><defs><style>.a{opacity:0.413;isolation:isolate;}.b{fill:#fff;}</style></defs><g class="a" transform="translate(-0.001)"><g transform="translate(0.001)"><path class="b" d="M26.878,0A26.878,26.878,0,1,0,53.756,26.877,26.878,26.878,0,0,0,26.878,0ZM23.889,26.877a4.715,4.715,0,0,1-.281,1.595l7.5,3.609a4.815,4.815,0,1,1-1.178,2.448l-7.986-3.841a4.722,4.722,0,1,1,0-7.621l7.986-3.84a4.726,4.726,0,1,1,1.177,2.449l-7.5,3.608A4.708,4.708,0,0,1,23.889,26.877Z" transform="translate(-0.001)"/></g></g></svg>