<svg xmlns="http://www.w3.org/2000/svg" width="73.998" height="73.999" viewBox="0 0 73.998 73.999"><defs><style>.a{opacity:0.746;isolation:isolate;}.b{fill:#f7681a;}</style></defs><g class="a" transform="translate(2.999)"><g transform="translate(-2.999)"><path class="b" d="M37,0A37,37,0,1,0,74,37,37,37,0,0,0,37,0ZM32.884,37a6.49,6.49,0,0,1-.387,2.2l10.327,4.968a6.628,6.628,0,1,1-1.622,3.37L30.209,42.245a6.5,6.5,0,1,1,0-10.492L41.2,26.467a6.506,6.506,0,1,1,1.621,3.371L32.5,34.8A6.481,6.481,0,0,1,32.884,37Z" transform="translate(-0.001)"/></g></g></svg>