<svg xmlns="http://www.w3.org/2000/svg" width="20.169" height="22.003" viewBox="0 0 20.169 22.003"><defs><style>.a{fill:#222;}</style></defs><path class="a" d="M320.627,18.98a2.98,2.98,0,1,1-2.98-2.98A2.98,2.98,0,0,1,320.627,18.98Zm0,0" transform="translate(-301.145 -15.312)"/><path class="a" d="M302.335,7.334A3.667,3.667,0,1,1,306,3.667,3.671,3.671,0,0,1,302.335,7.334Zm0-5.959a2.292,2.292,0,1,0,2.292,2.292A2.295,2.295,0,0,0,302.335,1.375Zm0,0" transform="translate(-285.833)"/><path class="a" d="M320.627,360.312a2.98,2.98,0,1,1-2.98-2.98A2.98,2.98,0,0,1,320.627,360.312Zm0,0" transform="translate(-301.145 -341.976)"/><path class="a" d="M302.335,348.666A3.667,3.667,0,1,1,306,345,3.671,3.671,0,0,1,302.335,348.666Zm0-5.959A2.292,2.292,0,1,0,304.627,345,2.295,2.295,0,0,0,302.335,342.707Zm0,0" transform="translate(-285.833 -326.663)"/><path class="a" d="M21.959,189.647a2.98,2.98,0,1,1-2.98-2.98A2.98,2.98,0,0,1,21.959,189.647Zm0,0" transform="translate(-15.312 -178.646)"/><path class="a" d="M3.667,178a3.667,3.667,0,1,1,3.667-3.667A3.671,3.671,0,0,1,3.667,178Zm0-5.959a2.292,2.292,0,1,0,2.292,2.292A2.294,2.294,0,0,0,3.667,172.043Zm0,0" transform="translate(0 -163.334)"/><path class="a" d="M115.266,96.9a.917.917,0,0,1-.455-1.714l8.507-4.85a.917.917,0,1,1,.908,1.593l-8.507,4.85A.911.911,0,0,1,115.266,96.9Zm0,0" transform="translate(-109.434 -86.338)"/><path class="a" d="M123.794,272.9a.911.911,0,0,1-.453-.12l-8.507-4.85a.917.917,0,0,1,.908-1.593l8.507,4.85a.917.917,0,0,1-.455,1.714Zm0,0" transform="translate(-109.456 -254.778)"/></svg>