<svg xmlns="http://www.w3.org/2000/svg" width="19.142" height="18.345" viewBox="0 0 19.142 18.345"><defs><style>.a{fill:#ffc107;}</style></defs><path class="a" d="M19.093,7.424a1.015,1.015,0,0,0-.876-.7l-5.525-.5L10.507,1.11a1.017,1.017,0,0,0-1.871,0L6.451,6.223l-5.526.5a1.019,1.019,0,0,0-.577,1.78l4.176,3.663L3.292,17.592a1.016,1.016,0,0,0,1.513,1.1l4.766-2.848,4.764,2.848a1.017,1.017,0,0,0,1.514-1.1l-1.231-5.425,4.176-3.662A1.018,1.018,0,0,0,19.093,7.424Zm0,0" transform="translate(0 -0.492)"/></svg>