<svg xmlns="http://www.w3.org/2000/svg" width="18.128" height="18.345" viewBox="0 0 18.128 18.345"><defs><style>.a{fill:#f7681a;}</style></defs><path class="a" d="M18.081,7.424a.974.974,0,0,0-.829-.7l-5.232-.5L9.95,1.11a.944.944,0,0,0-1.772,0L6.109,6.223l-5.233.5a.976.976,0,0,0-.829.7A1.054,1.054,0,0,0,.329,8.505l3.955,3.663L3.118,17.592a1.046,1.046,0,0,0,.375,1.05.916.916,0,0,0,1.058.049l4.513-2.848,4.512,2.848a.918.918,0,0,0,1.059-.049,1.047,1.047,0,0,0,.375-1.05l-1.166-5.425L17.8,8.506A1.055,1.055,0,0,0,18.081,7.424Zm0,0" transform="translate(0 -0.492)"/></svg>