<svg xmlns="http://www.w3.org/2000/svg" width="76" height="76" viewBox="0 0 76 76"><defs><style>.a{fill:#33732d;}</style></defs><path class="a" d="M38,0A38,38,0,1,0,76,38,38,38,0,0,0,38,0Zm0,70.571A32.571,32.571,0,1,1,70.571,38,32.571,32.571,0,0,1,38,70.571Z"/><g transform="translate(16.252 21.748)"><path class="a" d="M144.79,137.5a2.714,2.714,0,0,0-3.771,0h0l-25.224,25.224-8.938-8.938a2.714,2.714,0,1,0-3.9,3.771l.067.067,10.857,10.857a2.714,2.714,0,0,0,3.838,0l27.143-27.143A2.714,2.714,0,0,0,144.79,137.5Z" transform="translate(-102.19 -136.743)"/></g></svg>