<svg xmlns="http://www.w3.org/2000/svg" width="24.373" height="29.214" viewBox="0 0 24.373 29.214"><defs><style>.a{fill:#adadad;}</style></defs><path class="a" d="M94.068,14.072a6.808,6.808,0,0,0,4.975-2.061A6.808,6.808,0,0,0,101.1,7.036a6.809,6.809,0,0,0-2.061-4.975,7.035,7.035,0,0,0-9.95,0,6.808,6.808,0,0,0-2.061,4.975,6.808,6.808,0,0,0,2.062,4.975A6.81,6.81,0,0,0,94.068,14.072Zm0,0" transform="translate(-82.065)"/><path class="a" d="M24.314,255.669a17.379,17.379,0,0,0-.237-1.846,14.545,14.545,0,0,0-.454-1.856,9.166,9.166,0,0,0-.763-1.731,6.532,6.532,0,0,0-1.151-1.5,5.073,5.073,0,0,0-1.653-1.038,5.712,5.712,0,0,0-2.11-.382,2.141,2.141,0,0,0-1.144.485c-.343.224-.744.482-1.191.768a6.827,6.827,0,0,1-1.541.679,5.986,5.986,0,0,1-3.771,0,6.81,6.81,0,0,1-1.54-.679c-.443-.283-.845-.542-1.192-.769a2.139,2.139,0,0,0-1.143-.485,5.7,5.7,0,0,0-2.11.382,5.068,5.068,0,0,0-1.653,1.038,6.533,6.533,0,0,0-1.15,1.5,9.184,9.184,0,0,0-.763,1.731A14.579,14.579,0,0,0,.3,253.823a17.318,17.318,0,0,0-.237,1.847C.02,256.229,0,256.809,0,257.395a4.851,4.851,0,0,0,1.441,3.67,5.186,5.186,0,0,0,3.713,1.354H19.22a5.185,5.185,0,0,0,3.712-1.354,4.849,4.849,0,0,0,1.441-3.67C24.373,256.806,24.353,256.225,24.314,255.669Zm0,0" transform="translate(0 -233.205)"/></svg>