<svg xmlns="http://www.w3.org/2000/svg" width="25.766" height="16.36" viewBox="0 0 25.766 16.36"><defs><style>.a{fill:#adadad;}</style></defs><g transform="translate(0 -92.25)"><g transform="translate(0 92.25)"><path class="a" d="M22.284,99.449a2.942,2.942,0,1,0-3.375,0,5.1,5.1,0,0,0-1.738,1.02,6.6,6.6,0,0,0-2.386-1.3,3.727,3.727,0,1,0-3.854,0,6.65,6.65,0,0,0-2.36,1.285,5.138,5.138,0,0,0-1.718-1,2.942,2.942,0,1,0-3.375,0A5.164,5.164,0,0,0,0,104.333v.336a.022.022,0,0,0,.02.02H6.255a6.857,6.857,0,0,0-.056.862v.347a2.711,2.711,0,0,0,2.712,2.712h7.9a2.711,2.711,0,0,0,2.712-2.712v-.347a6.857,6.857,0,0,0-.056-.862h6.276a.022.022,0,0,0,.02-.02v-.336A5.183,5.183,0,0,0,22.284,99.449Zm-3.813-2.411a2.126,2.126,0,1,1,2.167,2.126h-.082A2.123,2.123,0,0,1,18.471,97.037Zm-8.534-1.06a2.911,2.911,0,1,1,3.079,2.906h-.336A2.915,2.915,0,0,1,9.936,95.977Zm-6.913,1.06A2.126,2.126,0,1,1,5.19,99.163H5.108A2.126,2.126,0,0,1,3.023,97.037ZM6.4,103.869H.826a4.356,4.356,0,0,1,4.293-3.89H5.18a4.311,4.311,0,0,1,2.779,1.035A6.694,6.694,0,0,0,6.4,103.869ZM18.7,105.9a1.9,1.9,0,0,1-1.9,1.9H8.9A1.9,1.9,0,0,1,7,105.9v-.347A5.856,5.856,0,0,1,12.679,99.7c.056.005.117.005.173.005s.117,0,.173-.005a5.856,5.856,0,0,1,5.674,5.848Zm.607-2.029a6.676,6.676,0,0,0-1.545-2.835,4.332,4.332,0,0,1,2.8-1.055h.061a4.356,4.356,0,0,1,4.293,3.89Z" transform="translate(0 -92.25)"/></g></g></svg>