<svg xmlns="http://www.w3.org/2000/svg" width="14.475" height="19.908" viewBox="0 0 14.475 19.908"><defs><style>.a{fill:#f7681a;}</style></defs><path class="a" d="M83.237,0A7.129,7.129,0,0,0,76,7a6.814,6.814,0,0,0,1.08,3.68l5.745,8.953a.608.608,0,0,0,.512.276h0a.607.607,0,0,0,.513-.284l5.6-9.04A6.817,6.817,0,0,0,90.475,7,7.129,7.129,0,0,0,83.237,0Zm5.181,9.986L83.329,18.2l-5.223-8.14A5.684,5.684,0,0,1,77.2,7,6.04,6.04,0,0,1,89.272,7,5.683,5.683,0,0,1,88.419,9.986Z" transform="translate(-76 0)"/><g transform="translate(3.619 3.499)"><path class="a" d="M169.619,90a3.5,3.5,0,1,0,3.619,3.5A3.565,3.565,0,0,0,169.619,90Zm0,5.84a2.342,2.342,0,1,1,2.416-2.341A2.383,2.383,0,0,1,169.619,95.84Z" transform="translate(-166 -90)"/></g></svg>