<svg xmlns="http://www.w3.org/2000/svg" width="22.866" height="14.094" viewBox="0 0 22.866 14.094"><defs><style>.a{fill:#adadad;}</style></defs><g transform="translate(0 0)"><path class="a" d="M22.721,99.452c-.2-.27-5.072-6.617-11.288-6.617S.349,99.182.145,99.452a.71.71,0,0,0,0,.86c.2.27,5.072,6.617,11.288,6.617s11.084-6.347,11.288-6.617A.71.71,0,0,0,22.721,99.452Zm-11.288,6.019c-4.579,0-8.545-4.212-9.719-5.59,1.172-1.378,5.13-5.589,9.719-5.589s8.544,4.212,9.719,5.59C19.979,101.261,16.022,105.471,11.433,105.471Z" transform="translate(0 -92.835)"/></g><g transform="translate(6.91 2.673)"><g transform="translate(0 0)"><path class="a" d="M159.245,154.725a4.376,4.376,0,1,0,4.523,4.374A4.456,4.456,0,0,0,159.245,154.725Zm0,7.29a2.918,2.918,0,1,1,3.015-2.916A2.97,2.97,0,0,1,159.245,162.015Z" transform="translate(-154.722 -154.725)"/></g></g></svg>