<svg xmlns="http://www.w3.org/2000/svg" width="17.938" height="17.938" viewBox="0 0 17.938 17.938"><defs><style>.a{fill:#f7681a;}</style></defs><g transform="translate(1.051 7.392)"><path class="a" d="M45.548,211.055a.526.526,0,0,0-.708.226l-.612,1.184-.589-1.177a.525.525,0,0,0-.94,0l-.581,1.162-.581-1.162a.525.525,0,0,0-.5-.29L41,211a.526.526,0,0,0-.477.4.525.525,0,0,0-.98-.108l-.581,1.162-.581-1.162a.526.526,0,0,0-.94,0l-.581,1.162-.581-1.162a.525.525,0,0,0-.98.108.526.526,0,0,0-.477-.4l-.032,0a.525.525,0,0,0-.5.29l-.581,1.162-.581-1.162a.526.526,0,0,0-.94,0l-.589,1.177-.612-1.184a.526.526,0,1,0-.934.482l1.086,2.1a.526.526,0,0,0,.937-.006l.581-1.162.581,1.162a.526.526,0,0,0,.94,0l.979-1.958a.524.524,0,0,0,.144-.25.528.528,0,0,0,.039.106l1.051,2.1a.526.526,0,0,0,.94,0l.581-1.162.581,1.162a.526.526,0,0,0,.94,0l1.051-2.1a.526.526,0,0,0,.039-.106.524.524,0,0,0,.144.25l.979,1.958a.526.526,0,0,0,.94,0l.581-1.162.581,1.162a.526.526,0,0,0,.937.006l1.086-2.1A.525.525,0,0,0,45.548,211.055Z" transform="translate(-29.997 -210.996)"/></g><path class="a" d="M17.273,5.582a8.968,8.968,0,0,0-16.608,0A1.575,1.575,0,0,0,0,6.867v4.2a1.575,1.575,0,0,0,.665,1.285,8.968,8.968,0,0,0,16.608,0,1.575,1.575,0,0,0,.665-1.285v-4.2A1.575,1.575,0,0,0,17.273,5.582Zm-1.3-.292H13.29a10.09,10.09,0,0,0-1.519-3.583q-.07-.1-.141-.187A8.014,8.014,0,0,1,15.977,5.29ZM9.494,1.139c1.438.483,2.337,2.66,2.715,4.151H9.494Zm-1.051,0V5.29H5.729A8.806,8.806,0,0,1,7.018,2.322,3.144,3.144,0,0,1,8.443,1.139ZM6.306,1.52q-.071.091-.141.187A10.089,10.089,0,0,0,4.647,5.29H1.96A8.013,8.013,0,0,1,6.306,1.52ZM1.96,12.647H4.647a9.887,9.887,0,0,0,1.659,3.77A8.013,8.013,0,0,1,1.96,12.647ZM8.443,16.8c-1.438-.483-2.337-2.66-2.715-4.151H8.443Zm1.051,0V12.64h2.715C11.831,14.134,10.929,16.317,9.494,16.8Zm2.137-.381A9.917,9.917,0,0,0,13.29,12.64h2.687A8.026,8.026,0,0,1,11.631,16.417Zm5.255-5.346a.526.526,0,0,1-.526.526H1.577a.526.526,0,0,1-.526-.526v-4.2a.526.526,0,0,1,.526-.526H16.361a.526.526,0,0,1,.526.526Z"/></svg>