<svg xmlns="http://www.w3.org/2000/svg" width="37.18" height="37.181" viewBox="0 0 37.18 37.181"><defs><style>.a{isolation:isolate;}.b{fill:#cfd123;}</style></defs><g class="a" transform="translate(2.999)"><g transform="translate(-2.999)"><path class="b" d="M18.591,0A18.59,18.59,0,1,0,37.181,18.59,18.59,18.59,0,0,0,18.591,0ZM16.523,18.59a3.261,3.261,0,0,1-.194,1.1l5.189,2.5a3.33,3.33,0,1,1-.815,1.693l-5.524-2.657a3.266,3.266,0,1,1,0-5.271L20.7,13.3a3.269,3.269,0,1,1,.814,1.694l-5.189,2.5A3.256,3.256,0,0,1,16.523,18.59Z" transform="translate(-0.001)"/></g></g></svg>